<svg width="567" height="248" viewBox="0 0 567 248" fill="none" xmlns="http://www.w3.org/2000/svg">
<path d="M129.364 13.375V12.129H132.01C132.589 12.129 133.037 11.9937 133.354 11.723C133.681 11.443 133.844 11.0697 133.844 10.603C133.844 10.0803 133.657 9.67433 133.284 9.385C132.92 9.09567 132.407 8.95567 131.744 8.965H129.364V7.831L131.058 7.845C131.917 7.845 132.659 7.94767 133.284 8.153C133.919 8.35833 134.404 8.671 134.74 9.091C135.076 9.511 135.244 10.0383 135.244 10.673C135.244 11.2423 135.113 11.7323 134.852 12.143C134.6 12.5443 134.241 12.8523 133.774 13.067C133.307 13.2723 132.747 13.375 132.094 13.375H129.364ZM128.538 13.375V3.575H129.896V13.375H128.538ZM129.336 9.007V7.789H131.912C132.416 7.789 132.813 7.65367 133.102 7.383C133.401 7.11233 133.55 6.739 133.55 6.263C133.55 5.76833 133.382 5.38567 133.046 5.115C132.71 4.84433 132.239 4.71367 131.632 4.723H129.336V3.589L131.688 3.561C132.36 3.561 132.934 3.66833 133.41 3.883C133.895 4.08833 134.269 4.39167 134.53 4.793C134.801 5.19433 134.936 5.689 134.936 6.277C134.936 6.79967 134.787 7.26167 134.488 7.663C134.199 8.06433 133.783 8.377 133.242 8.601C132.701 8.825 132.061 8.937 131.324 8.937L129.336 9.007ZM137.797 13.375V3.575H139.169V13.375H137.797ZM138.847 13.375V12.115H143.719V13.375H138.847ZM149.506 13.585C148.75 13.585 148.083 13.431 147.504 13.123C146.935 12.8057 146.492 12.367 146.174 11.807C145.857 11.2377 145.698 10.5843 145.698 9.847H147.07C147.07 10.3323 147.173 10.7617 147.378 11.135C147.593 11.5083 147.882 11.7977 148.246 12.003C148.62 12.2083 149.049 12.311 149.534 12.311C150.02 12.311 150.449 12.2083 150.822 12.003C151.196 11.7977 151.485 11.5083 151.69 11.135C151.896 10.7617 151.998 10.3323 151.998 9.847H153.384C153.384 10.5843 153.221 11.2377 152.894 11.807C152.577 12.367 152.124 12.8057 151.536 13.123C150.958 13.431 150.281 13.585 149.506 13.585ZM145.698 9.847V3.575H147.07V9.847H145.698ZM151.998 9.847V3.575H153.384V9.847H151.998ZM156.423 13.375V3.575H157.795V13.375H156.423ZM157.571 13.375V12.115H162.345V13.375H157.571ZM157.571 8.979V7.747H161.869V8.979H157.571ZM157.571 4.835V3.575H162.317V4.835H157.571ZM168.559 13.543C168.036 13.543 167.56 13.4823 167.131 13.361C166.711 13.2397 166.342 13.0763 166.025 12.871C165.717 12.6563 165.46 12.4183 165.255 12.157C165.049 11.8957 164.905 11.6203 164.821 11.331L166.151 10.897C166.291 11.2797 166.557 11.611 166.949 11.891C167.341 12.171 167.821 12.3157 168.391 12.325C169.081 12.325 169.623 12.1897 170.015 11.919C170.416 11.639 170.617 11.2703 170.617 10.813C170.617 10.393 170.444 10.0523 170.099 9.791C169.753 9.52033 169.296 9.315 168.727 9.175L167.593 8.881C167.145 8.75967 166.734 8.587 166.361 8.363C165.997 8.139 165.707 7.85433 165.493 7.509C165.278 7.16367 165.171 6.74833 165.171 6.263C165.171 5.367 165.46 4.667 166.039 4.163C166.627 3.659 167.471 3.407 168.573 3.407C169.207 3.407 169.758 3.50967 170.225 3.715C170.691 3.911 171.074 4.17233 171.373 4.499C171.681 4.82567 171.9 5.185 172.031 5.577L170.701 6.025C170.542 5.605 170.271 5.269 169.889 5.017C169.506 4.75567 169.035 4.625 168.475 4.625C167.887 4.625 167.42 4.765 167.075 5.045C166.739 5.325 166.571 5.70767 166.571 6.193C166.571 6.60367 166.701 6.921 166.963 7.145C167.233 7.35967 167.593 7.523 168.041 7.635L169.175 7.915C170.089 8.139 170.794 8.51233 171.289 9.035C171.793 9.54833 172.045 10.113 172.045 10.729C172.045 11.261 171.909 11.7417 171.639 12.171C171.377 12.591 170.985 12.927 170.463 13.179C169.949 13.4217 169.315 13.543 168.559 13.543ZM185.561 13.375L181.683 3.575H183.083L187.031 13.375H185.561ZM177.665 13.375L181.613 3.575H183.013L179.135 13.375H177.665ZM179.527 10.757V9.525H185.169V10.757H179.527ZM196.054 13.375L189.418 4.345L190.51 3.575L197.146 12.591L196.054 13.375ZM189.096 13.375V3.575H190.51L190.468 4.723V13.375H189.096ZM196.054 13.375V3.575H197.44V13.375H196.054ZM203.662 13.375V12.087C204.138 12.087 204.581 11.9983 204.992 11.821C205.403 11.6343 205.762 11.3777 206.07 11.051C206.387 10.715 206.63 10.3277 206.798 9.889C206.975 9.45033 207.064 8.979 207.064 8.475C207.064 7.971 206.975 7.49967 206.798 7.061C206.63 6.62233 206.387 6.23967 206.07 5.913C205.762 5.577 205.403 5.32033 204.992 5.143C204.581 4.95633 204.138 4.863 203.662 4.863V3.575C204.595 3.575 205.421 3.785 206.14 4.205C206.868 4.61567 207.437 5.18967 207.848 5.927C208.259 6.66433 208.464 7.51367 208.464 8.475C208.464 9.427 208.259 10.2717 207.848 11.009C207.437 11.7463 206.868 12.325 206.14 12.745C205.421 13.165 204.595 13.375 203.662 13.375ZM201.632 13.375V12.087H203.662V13.375H201.632ZM200.638 13.375V3.575H202.01V13.375H200.638ZM201.632 4.863V3.575H203.662V4.863H201.632ZM219.588 13.543C218.598 13.543 217.716 13.3283 216.942 12.899C216.176 12.4603 215.574 11.863 215.136 11.107C214.706 10.3417 214.492 9.469 214.492 8.489C214.492 7.49033 214.706 6.613 215.136 5.857C215.574 5.09167 216.176 4.49433 216.942 4.065C217.716 3.62633 218.598 3.407 219.588 3.407C220.129 3.407 220.647 3.49567 221.142 3.673C221.646 3.841 222.098 4.079 222.5 4.387C222.91 4.68567 223.242 5.031 223.494 5.423L222.388 6.151C222.201 5.86167 221.958 5.605 221.66 5.381C221.361 5.157 221.03 4.98433 220.666 4.863C220.311 4.73233 219.952 4.667 219.588 4.667C218.869 4.667 218.23 4.83033 217.67 5.157C217.119 5.48367 216.685 5.93167 216.368 6.501C216.05 7.07033 215.892 7.733 215.892 8.489C215.892 9.22633 216.046 9.87967 216.354 10.449C216.671 11.0183 217.11 11.4663 217.67 11.793C218.239 12.1197 218.888 12.283 219.616 12.283C220.204 12.283 220.726 12.1617 221.184 11.919C221.65 11.6763 222.014 11.3357 222.276 10.897C222.546 10.4583 222.682 9.94967 222.682 9.371L224.012 9.245C224.012 10.113 223.82 10.869 223.438 11.513C223.064 12.157 222.546 12.6563 221.884 13.011C221.221 13.3657 220.456 13.543 219.588 13.543ZM220.302 9.455V8.307H224.012V9.315L223.312 9.455H220.302ZM227.692 9.623V8.363H229.848C230.184 8.363 230.482 8.28833 230.744 8.139C231.014 7.98033 231.229 7.77033 231.388 7.509C231.556 7.23833 231.64 6.935 231.64 6.599C231.64 6.07633 231.458 5.65167 231.094 5.325C230.73 4.99833 230.258 4.835 229.68 4.835H227.692V3.575L229.722 3.561C230.375 3.55167 230.949 3.67767 231.444 3.939C231.948 4.20033 232.34 4.55967 232.62 5.017C232.909 5.47433 233.054 6.00167 233.054 6.599C233.054 7.187 232.9 7.70967 232.592 8.167C232.293 8.62433 231.882 8.98367 231.36 9.245C230.837 9.497 230.249 9.623 229.596 9.623H227.692ZM226.418 13.375V3.575H227.79V13.375H226.418ZM231.892 13.375L229.568 9.371L230.66 8.643L233.446 13.375H231.892ZM235.95 13.375V3.575H237.322V13.375H235.95ZM237.098 13.375V12.115H241.872V13.375H237.098ZM237.098 8.979V7.747H241.396V8.979H237.098ZM237.098 4.835V3.575H241.844V4.835H237.098ZM248.659 9.301L247.413 8.825L250.591 3.575H252.187L248.659 9.301ZM247.301 13.375V8.671H248.687V13.375H247.301ZM247.329 9.301L243.801 3.575H245.383L248.561 8.825L247.329 9.301ZM257.412 13.543C256.889 13.543 256.413 13.4823 255.984 13.361C255.564 13.2397 255.195 13.0763 254.878 12.871C254.57 12.6563 254.313 12.4183 254.108 12.157C253.903 11.8957 253.758 11.6203 253.674 11.331L255.004 10.897C255.144 11.2797 255.41 11.611 255.802 11.891C256.194 12.171 256.675 12.3157 257.244 12.325C257.935 12.325 258.476 12.1897 258.868 11.919C259.269 11.639 259.47 11.2703 259.47 10.813C259.47 10.393 259.297 10.0523 258.952 9.791C258.607 9.52033 258.149 9.315 257.58 9.175L256.446 8.881C255.998 8.75967 255.587 8.587 255.214 8.363C254.85 8.139 254.561 7.85433 254.346 7.509C254.131 7.16367 254.024 6.74833 254.024 6.263C254.024 5.367 254.313 4.667 254.892 4.163C255.48 3.659 256.325 3.407 257.426 3.407C258.061 3.407 258.611 3.50967 259.078 3.715C259.545 3.911 259.927 4.17233 260.226 4.499C260.534 4.82567 260.753 5.185 260.884 5.577L259.554 6.025C259.395 5.605 259.125 5.269 258.742 5.017C258.359 4.75567 257.888 4.625 257.328 4.625C256.74 4.625 256.273 4.765 255.928 5.045C255.592 5.325 255.424 5.70767 255.424 6.193C255.424 6.60367 255.555 6.921 255.816 7.145C256.087 7.35967 256.446 7.523 256.894 7.635L258.028 7.915C258.943 8.139 259.647 8.51233 260.142 9.035C260.646 9.54833 260.898 10.113 260.898 10.729C260.898 11.261 260.763 11.7417 260.492 12.171C260.231 12.591 259.839 12.927 259.316 13.179C258.803 13.4217 258.168 13.543 257.412 13.543Z" fill="#3B3E4A"/>
<g filter="url(#filter0_ddddd_416_7230)">
<rect x="240.542" y="35.097" width="141.007" height="183.907" rx="70.5034" fill="#F5F7FF"/>
<rect x="243.865" y="38.4199" width="134.361" height="177.261" rx="67.1805" stroke="white" stroke-width="6.64576"/>
</g>
<g filter="url(#filter1_ddddd_416_7230)">
<rect x="163.04" y="35.097" width="141.007" height="183.907" rx="70.5034" fill="#1D4ADE"/>
<rect x="166.363" y="38.4199" width="134.361" height="177.261" rx="67.1805" stroke="white" stroke-width="6.64576"/>
</g>
<g filter="url(#filter2_ddddd_416_7230)">
<rect x="85.5371" y="35.097" width="141.007" height="183.907" rx="70.5034" fill="url(#paint0_linear_416_7230)"/>
<rect x="88.86" y="38.4199" width="134.361" height="177.261" rx="67.1805" stroke="white" stroke-width="6.64576"/>
</g>
<g filter="url(#filter3_ddddd_416_7230)">
<rect x="8.03418" y="35.097" width="141.007" height="183.907" rx="70.5034" fill="#353744"/>
<rect x="11.3571" y="38.4199" width="134.361" height="177.261" rx="67.1805" stroke="white" stroke-width="6.64576"/>
</g>
<path d="M465.519 13.375L461.641 3.575H463.041L466.989 13.375H465.519ZM457.623 13.375L461.571 3.575H462.971L459.093 13.375H457.623ZM459.485 10.757V9.525H465.127V10.757H459.485ZM472.898 13.543C471.964 13.543 471.134 13.3283 470.406 12.899C469.678 12.4603 469.108 11.863 468.698 11.107C468.287 10.3417 468.082 9.46433 468.082 8.475C468.082 7.48567 468.287 6.613 468.698 5.857C469.108 5.09167 469.673 4.49433 470.392 4.065C471.11 3.62633 471.936 3.407 472.87 3.407C473.476 3.407 474.055 3.519 474.606 3.743C475.156 3.95767 475.646 4.261 476.076 4.653C476.514 5.03567 476.85 5.48367 477.084 5.997L475.852 6.557C475.674 6.17433 475.432 5.843 475.124 5.563C474.816 5.283 474.466 5.06367 474.074 4.905C473.691 4.74633 473.29 4.667 472.87 4.667C472.216 4.667 471.633 4.83033 471.12 5.157C470.606 5.48367 470.205 5.93167 469.916 6.501C469.626 7.07033 469.482 7.72833 469.482 8.475C469.482 9.22167 469.626 9.88433 469.916 10.463C470.214 11.0417 470.62 11.4943 471.134 11.821C471.656 12.1383 472.249 12.297 472.912 12.297C473.341 12.297 473.747 12.213 474.13 12.045C474.512 11.8677 474.853 11.6297 475.152 11.331C475.46 11.023 475.707 10.673 475.894 10.281L477.126 10.827C476.892 11.359 476.561 11.8303 476.132 12.241C475.702 12.6517 475.208 12.9737 474.648 13.207C474.097 13.431 473.514 13.543 472.898 13.543ZM483.701 13.543C482.768 13.543 481.937 13.3283 481.209 12.899C480.481 12.4603 479.912 11.863 479.501 11.107C479.091 10.3417 478.885 9.46433 478.885 8.475C478.885 7.48567 479.091 6.613 479.501 5.857C479.912 5.09167 480.477 4.49433 481.195 4.065C481.914 3.62633 482.74 3.407 483.673 3.407C484.28 3.407 484.859 3.519 485.409 3.743C485.96 3.95767 486.45 4.261 486.879 4.653C487.318 5.03567 487.654 5.48367 487.887 5.997L486.655 6.557C486.478 6.17433 486.235 5.843 485.927 5.563C485.619 5.283 485.269 5.06367 484.877 4.905C484.495 4.74633 484.093 4.667 483.673 4.667C483.02 4.667 482.437 4.83033 481.923 5.157C481.41 5.48367 481.009 5.93167 480.719 6.501C480.43 7.07033 480.285 7.72833 480.285 8.475C480.285 9.22167 480.43 9.88433 480.719 10.463C481.018 11.0417 481.424 11.4943 481.937 11.821C482.46 12.1383 483.053 12.297 483.715 12.297C484.145 12.297 484.551 12.213 484.933 12.045C485.316 11.8677 485.657 11.6297 485.955 11.331C486.263 11.023 486.511 10.673 486.697 10.281L487.929 10.827C487.696 11.359 487.365 11.8303 486.935 12.241C486.506 12.6517 486.011 12.9737 485.451 13.207C484.901 13.431 484.317 13.543 483.701 13.543ZM490.333 13.375V3.575H491.705V13.375H490.333ZM491.481 13.375V12.115H496.255V13.375H491.481ZM491.481 8.979V7.747H495.779V8.979H491.481ZM491.481 4.835V3.575H496.227V4.835H491.481ZM506.262 13.375L499.626 4.345L500.718 3.575L507.354 12.591L506.262 13.375ZM499.304 13.375V3.575H500.718L500.676 4.723V13.375H499.304ZM506.262 13.375V3.575H507.648V13.375H506.262ZM512.834 13.375V4.387H514.22V13.375H512.834ZM509.768 4.835V3.575H517.286V4.835H509.768Z" fill="#3B3E4A"/>
<g filter="url(#filter4_ddddd_416_7230)">
<rect x="416.993" y="35.097" width="141.007" height="183.907" rx="70.5034" fill="url(#paint1_linear_416_7230)"/>
<rect x="420.316" y="38.4199" width="134.361" height="177.261" rx="67.1805" stroke="white" stroke-width="6.64576"/>
</g>
<defs>
<filter id="filter0_ddddd_416_7230" x="233.158" y="33.6202" width="157.252" height="213.443" filterUnits="userSpaceOnUse" color-interpolation-filters="sRGB">
<feFlood flood-opacity="0" result="BackgroundImageFix"/>
<feColorMatrix in="SourceAlpha" type="matrix" values="0 0 0 0 0 0 0 0 0 0 0 0 0 0 0 0 0 0 127 0" result="hardAlpha"/>
<feOffset/>
<feColorMatrix type="matrix" values="0 0 0 0 0 0 0 0 0 0 0 0 0 0 0 0 0 0 0.05 0"/>
<feBlend mode="normal" in2="BackgroundImageFix" result="effect1_dropShadow_416_7230"/>
<feColorMatrix in="SourceAlpha" type="matrix" values="0 0 0 0 0 0 0 0 0 0 0 0 0 0 0 0 0 0 127 0" result="hardAlpha"/>
<feOffset dy="1.47684"/>
<feGaussianBlur stdDeviation="1.47684"/>
<feColorMatrix type="matrix" values="0 0 0 0 0 0 0 0 0 0 0 0 0 0 0 0 0 0 0.05 0"/>
<feBlend mode="normal" in2="effect1_dropShadow_416_7230" result="effect2_dropShadow_416_7230"/>
<feColorMatrix in="SourceAlpha" type="matrix" values="0 0 0 0 0 0 0 0 0 0 0 0 0 0 0 0 0 0 127 0" result="hardAlpha"/>
<feOffset dy="5.16892"/>
<feGaussianBlur stdDeviation="2.58446"/>
<feColorMatrix type="matrix" values="0 0 0 0 0 0 0 0 0 0 0 0 0 0 0 0 0 0 0.04 0"/>
<feBlend mode="normal" in2="effect2_dropShadow_416_7230" result="effect3_dropShadow_416_7230"/>
<feColorMatrix in="SourceAlpha" type="matrix" values="0 0 0 0 0 0 0 0 0 0 0 0 0 0 0 0 0 0 127 0" result="hardAlpha"/>
<feOffset dx="0.738418" dy="11.0763"/>
<feGaussianBlur stdDeviation="3.32288"/>
<feColorMatrix type="matrix" values="0 0 0 0 0 0 0 0 0 0 0 0 0 0 0 0 0 0 0.03 0"/>
<feBlend mode="normal" in2="effect3_dropShadow_416_7230" result="effect4_dropShadow_416_7230"/>
<feColorMatrix in="SourceAlpha" type="matrix" values="0 0 0 0 0 0 0 0 0 0 0 0 0 0 0 0 0 0 127 0" result="hardAlpha"/>
<feOffset dx="0.738418" dy="19.9373"/>
<feGaussianBlur stdDeviation="4.0613"/>
<feColorMatrix type="matrix" values="0 0 0 0 0 0 0 0 0 0 0 0 0 0 0 0 0 0 0.01 0"/>
<feBlend mode="normal" in2="effect4_dropShadow_416_7230" result="effect5_dropShadow_416_7230"/>
<feBlend mode="normal" in="SourceGraphic" in2="effect5_dropShadow_416_7230" result="shape"/>
</filter>
<filter id="filter1_ddddd_416_7230" x="155.656" y="33.6202" width="157.252" height="213.443" filterUnits="userSpaceOnUse" color-interpolation-filters="sRGB">
<feFlood flood-opacity="0" result="BackgroundImageFix"/>
<feColorMatrix in="SourceAlpha" type="matrix" values="0 0 0 0 0 0 0 0 0 0 0 0 0 0 0 0 0 0 127 0" result="hardAlpha"/>
<feOffset/>
<feColorMatrix type="matrix" values="0 0 0 0 0 0 0 0 0 0 0 0 0 0 0 0 0 0 0.05 0"/>
<feBlend mode="normal" in2="BackgroundImageFix" result="effect1_dropShadow_416_7230"/>
<feColorMatrix in="SourceAlpha" type="matrix" values="0 0 0 0 0 0 0 0 0 0 0 0 0 0 0 0 0 0 127 0" result="hardAlpha"/>
<feOffset dy="1.47684"/>
<feGaussianBlur stdDeviation="1.47684"/>
<feColorMatrix type="matrix" values="0 0 0 0 0 0 0 0 0 0 0 0 0 0 0 0 0 0 0.05 0"/>
<feBlend mode="normal" in2="effect1_dropShadow_416_7230" result="effect2_dropShadow_416_7230"/>
<feColorMatrix in="SourceAlpha" type="matrix" values="0 0 0 0 0 0 0 0 0 0 0 0 0 0 0 0 0 0 127 0" result="hardAlpha"/>
<feOffset dy="5.16892"/>
<feGaussianBlur stdDeviation="2.58446"/>
<feColorMatrix type="matrix" values="0 0 0 0 0 0 0 0 0 0 0 0 0 0 0 0 0 0 0.04 0"/>
<feBlend mode="normal" in2="effect2_dropShadow_416_7230" result="effect3_dropShadow_416_7230"/>
<feColorMatrix in="SourceAlpha" type="matrix" values="0 0 0 0 0 0 0 0 0 0 0 0 0 0 0 0 0 0 127 0" result="hardAlpha"/>
<feOffset dx="0.738418" dy="11.0763"/>
<feGaussianBlur stdDeviation="3.32288"/>
<feColorMatrix type="matrix" values="0 0 0 0 0 0 0 0 0 0 0 0 0 0 0 0 0 0 0.03 0"/>
<feBlend mode="normal" in2="effect3_dropShadow_416_7230" result="effect4_dropShadow_416_7230"/>
<feColorMatrix in="SourceAlpha" type="matrix" values="0 0 0 0 0 0 0 0 0 0 0 0 0 0 0 0 0 0 127 0" result="hardAlpha"/>
<feOffset dx="0.738418" dy="19.9373"/>
<feGaussianBlur stdDeviation="4.0613"/>
<feColorMatrix type="matrix" values="0 0 0 0 0 0 0 0 0 0 0 0 0 0 0 0 0 0 0.01 0"/>
<feBlend mode="normal" in2="effect4_dropShadow_416_7230" result="effect5_dropShadow_416_7230"/>
<feBlend mode="normal" in="SourceGraphic" in2="effect5_dropShadow_416_7230" result="shape"/>
</filter>
<filter id="filter2_ddddd_416_7230" x="78.1529" y="33.6202" width="157.252" height="213.443" filterUnits="userSpaceOnUse" color-interpolation-filters="sRGB">
<feFlood flood-opacity="0" result="BackgroundImageFix"/>
<feColorMatrix in="SourceAlpha" type="matrix" values="0 0 0 0 0 0 0 0 0 0 0 0 0 0 0 0 0 0 127 0" result="hardAlpha"/>
<feOffset/>
<feColorMatrix type="matrix" values="0 0 0 0 0 0 0 0 0 0 0 0 0 0 0 0 0 0 0.05 0"/>
<feBlend mode="normal" in2="BackgroundImageFix" result="effect1_dropShadow_416_7230"/>
<feColorMatrix in="SourceAlpha" type="matrix" values="0 0 0 0 0 0 0 0 0 0 0 0 0 0 0 0 0 0 127 0" result="hardAlpha"/>
<feOffset dy="1.47684"/>
<feGaussianBlur stdDeviation="1.47684"/>
<feColorMatrix type="matrix" values="0 0 0 0 0 0 0 0 0 0 0 0 0 0 0 0 0 0 0.05 0"/>
<feBlend mode="normal" in2="effect1_dropShadow_416_7230" result="effect2_dropShadow_416_7230"/>
<feColorMatrix in="SourceAlpha" type="matrix" values="0 0 0 0 0 0 0 0 0 0 0 0 0 0 0 0 0 0 127 0" result="hardAlpha"/>
<feOffset dy="5.16892"/>
<feGaussianBlur stdDeviation="2.58446"/>
<feColorMatrix type="matrix" values="0 0 0 0 0 0 0 0 0 0 0 0 0 0 0 0 0 0 0.04 0"/>
<feBlend mode="normal" in2="effect2_dropShadow_416_7230" result="effect3_dropShadow_416_7230"/>
<feColorMatrix in="SourceAlpha" type="matrix" values="0 0 0 0 0 0 0 0 0 0 0 0 0 0 0 0 0 0 127 0" result="hardAlpha"/>
<feOffset dx="0.738418" dy="11.0763"/>
<feGaussianBlur stdDeviation="3.32288"/>
<feColorMatrix type="matrix" values="0 0 0 0 0 0 0 0 0 0 0 0 0 0 0 0 0 0 0.03 0"/>
<feBlend mode="normal" in2="effect3_dropShadow_416_7230" result="effect4_dropShadow_416_7230"/>
<feColorMatrix in="SourceAlpha" type="matrix" values="0 0 0 0 0 0 0 0 0 0 0 0 0 0 0 0 0 0 127 0" result="hardAlpha"/>
<feOffset dx="0.738418" dy="19.9373"/>
<feGaussianBlur stdDeviation="4.0613"/>
<feColorMatrix type="matrix" values="0 0 0 0 0 0 0 0 0 0 0 0 0 0 0 0 0 0 0.01 0"/>
<feBlend mode="normal" in2="effect4_dropShadow_416_7230" result="effect5_dropShadow_416_7230"/>
<feBlend mode="normal" in="SourceGraphic" in2="effect5_dropShadow_416_7230" result="shape"/>
</filter>
<filter id="filter3_ddddd_416_7230" x="0.650003" y="33.6202" width="157.252" height="213.443" filterUnits="userSpaceOnUse" color-interpolation-filters="sRGB">
<feFlood flood-opacity="0" result="BackgroundImageFix"/>
<feColorMatrix in="SourceAlpha" type="matrix" values="0 0 0 0 0 0 0 0 0 0 0 0 0 0 0 0 0 0 127 0" result="hardAlpha"/>
<feOffset/>
<feColorMatrix type="matrix" values="0 0 0 0 0 0 0 0 0 0 0 0 0 0 0 0 0 0 0.05 0"/>
<feBlend mode="normal" in2="BackgroundImageFix" result="effect1_dropShadow_416_7230"/>
<feColorMatrix in="SourceAlpha" type="matrix" values="0 0 0 0 0 0 0 0 0 0 0 0 0 0 0 0 0 0 127 0" result="hardAlpha"/>
<feOffset dy="1.47684"/>
<feGaussianBlur stdDeviation="1.47684"/>
<feColorMatrix type="matrix" values="0 0 0 0 0 0 0 0 0 0 0 0 0 0 0 0 0 0 0.05 0"/>
<feBlend mode="normal" in2="effect1_dropShadow_416_7230" result="effect2_dropShadow_416_7230"/>
<feColorMatrix in="SourceAlpha" type="matrix" values="0 0 0 0 0 0 0 0 0 0 0 0 0 0 0 0 0 0 127 0" result="hardAlpha"/>
<feOffset dy="5.16892"/>
<feGaussianBlur stdDeviation="2.58446"/>
<feColorMatrix type="matrix" values="0 0 0 0 0 0 0 0 0 0 0 0 0 0 0 0 0 0 0.04 0"/>
<feBlend mode="normal" in2="effect2_dropShadow_416_7230" result="effect3_dropShadow_416_7230"/>
<feColorMatrix in="SourceAlpha" type="matrix" values="0 0 0 0 0 0 0 0 0 0 0 0 0 0 0 0 0 0 127 0" result="hardAlpha"/>
<feOffset dx="0.738418" dy="11.0763"/>
<feGaussianBlur stdDeviation="3.32288"/>
<feColorMatrix type="matrix" values="0 0 0 0 0 0 0 0 0 0 0 0 0 0 0 0 0 0 0.03 0"/>
<feBlend mode="normal" in2="effect3_dropShadow_416_7230" result="effect4_dropShadow_416_7230"/>
<feColorMatrix in="SourceAlpha" type="matrix" values="0 0 0 0 0 0 0 0 0 0 0 0 0 0 0 0 0 0 127 0" result="hardAlpha"/>
<feOffset dx="0.738418" dy="19.9373"/>
<feGaussianBlur stdDeviation="4.0613"/>
<feColorMatrix type="matrix" values="0 0 0 0 0 0 0 0 0 0 0 0 0 0 0 0 0 0 0.01 0"/>
<feBlend mode="normal" in2="effect4_dropShadow_416_7230" result="effect5_dropShadow_416_7230"/>
<feBlend mode="normal" in="SourceGraphic" in2="effect5_dropShadow_416_7230" result="shape"/>
</filter>
<filter id="filter4_ddddd_416_7230" x="409.609" y="33.6202" width="157.252" height="213.443" filterUnits="userSpaceOnUse" color-interpolation-filters="sRGB">
<feFlood flood-opacity="0" result="BackgroundImageFix"/>
<feColorMatrix in="SourceAlpha" type="matrix" values="0 0 0 0 0 0 0 0 0 0 0 0 0 0 0 0 0 0 127 0" result="hardAlpha"/>
<feOffset/>
<feColorMatrix type="matrix" values="0 0 0 0 0 0 0 0 0 0 0 0 0 0 0 0 0 0 0.05 0"/>
<feBlend mode="normal" in2="BackgroundImageFix" result="effect1_dropShadow_416_7230"/>
<feColorMatrix in="SourceAlpha" type="matrix" values="0 0 0 0 0 0 0 0 0 0 0 0 0 0 0 0 0 0 127 0" result="hardAlpha"/>
<feOffset dy="1.47684"/>
<feGaussianBlur stdDeviation="1.47684"/>
<feColorMatrix type="matrix" values="0 0 0 0 0 0 0 0 0 0 0 0 0 0 0 0 0 0 0.05 0"/>
<feBlend mode="normal" in2="effect1_dropShadow_416_7230" result="effect2_dropShadow_416_7230"/>
<feColorMatrix in="SourceAlpha" type="matrix" values="0 0 0 0 0 0 0 0 0 0 0 0 0 0 0 0 0 0 127 0" result="hardAlpha"/>
<feOffset dy="5.16892"/>
<feGaussianBlur stdDeviation="2.58446"/>
<feColorMatrix type="matrix" values="0 0 0 0 0 0 0 0 0 0 0 0 0 0 0 0 0 0 0.04 0"/>
<feBlend mode="normal" in2="effect2_dropShadow_416_7230" result="effect3_dropShadow_416_7230"/>
<feColorMatrix in="SourceAlpha" type="matrix" values="0 0 0 0 0 0 0 0 0 0 0 0 0 0 0 0 0 0 127 0" result="hardAlpha"/>
<feOffset dx="0.738418" dy="11.0763"/>
<feGaussianBlur stdDeviation="3.32288"/>
<feColorMatrix type="matrix" values="0 0 0 0 0 0 0 0 0 0 0 0 0 0 0 0 0 0 0.03 0"/>
<feBlend mode="normal" in2="effect3_dropShadow_416_7230" result="effect4_dropShadow_416_7230"/>
<feColorMatrix in="SourceAlpha" type="matrix" values="0 0 0 0 0 0 0 0 0 0 0 0 0 0 0 0 0 0 127 0" result="hardAlpha"/>
<feOffset dx="0.738418" dy="19.9373"/>
<feGaussianBlur stdDeviation="4.0613"/>
<feColorMatrix type="matrix" values="0 0 0 0 0 0 0 0 0 0 0 0 0 0 0 0 0 0 0.01 0"/>
<feBlend mode="normal" in2="effect4_dropShadow_416_7230" result="effect5_dropShadow_416_7230"/>
<feBlend mode="normal" in="SourceGraphic" in2="effect5_dropShadow_416_7230" result="shape"/>
</filter>
<linearGradient id="paint0_linear_416_7230" x1="156.04" y1="35.097" x2="156.04" y2="219.004" gradientUnits="userSpaceOnUse">
<stop stop-color="#1D4ADE"/>
<stop offset="1" stop-color="#1C29D9"/>
</linearGradient>
<linearGradient id="paint1_linear_416_7230" x1="416.993" y1="35.097" x2="558" y2="35.097" gradientUnits="userSpaceOnUse">
<stop stop-color="#1D4ADE"/>
<stop offset="0.0909091" stop-color="#653ED3"/>
<stop offset="0.181818" stop-color="#8A2DC5"/>
<stop offset="0.272727" stop-color="#A513B5"/>
<stop offset="0.363636" stop-color="#B900A4"/>
<stop offset="0.454545" stop-color="#C90091"/>
<stop offset="0.545455" stop-color="#D4007E"/>
<stop offset="0.636364" stop-color="#DB006B"/>
<stop offset="0.727273" stop-color="#DF0058"/>
<stop offset="0.818182" stop-color="#E00046"/>
<stop offset="0.909091" stop-color="#DE0034"/>
<stop offset="1" stop-color="#D92121"/>
</linearGradient>
</defs>
</svg>
