<svg width="497" height="281" viewBox="0 0 497 281" fill="none" xmlns="http://www.w3.org/2000/svg">
<path d="M64.3945 187.785L47.3047 237.004H6.97266L77.2461 44.3669H124.824L194.824 237.004H154.902L137.812 187.785H64.3945ZM101.035 74.0349C100.124 77.6807 98.8477 82.0557 97.207 87.1599C95.5664 92.264 94.3815 95.8643 93.6523 97.9606L73.418 157.433H128.789L108.008 96.7302C106.732 92.9932 105.547 89.2106 104.453 85.3825C103.359 81.5544 102.22 77.7718 101.035 74.0349ZM250.474 239.738C236.164 239.738 224.999 235.864 216.978 228.117C208.957 220.278 204.947 209.295 204.947 195.168C204.947 179.855 209.914 168.234 219.849 160.304C229.875 152.375 244.367 148.228 263.326 147.863L295.181 147.316V139.797C295.181 130.135 293.495 122.98 290.123 118.332C286.75 113.592 281.236 111.222 273.58 111.222C266.47 111.222 261.229 112.863 257.857 116.144C254.576 119.334 252.525 124.666 251.705 132.14L211.646 130.226C216.659 100.968 237.851 86.3395 275.22 86.3395C293.905 86.3395 308.306 90.9424 318.423 100.148C328.541 109.354 333.599 122.433 333.599 139.386V193.254C333.599 201.548 334.511 207.29 336.334 210.48C338.248 213.579 341.392 215.129 345.767 215.129C348.684 215.129 351.509 214.855 354.244 214.308V235.09C349.504 236.274 345.448 237.14 342.076 237.687C338.703 238.325 334.556 238.644 329.634 238.644C319.973 238.644 312.818 236.274 308.17 231.535C303.612 226.795 300.878 219.823 299.966 210.617H299.146C293.768 220.278 287.024 227.57 278.912 232.492C270.8 237.323 261.321 239.738 250.474 239.738ZM295.181 168.508L275.494 168.781C266.47 169.237 260.136 170.194 256.49 171.652C252.753 173.293 249.882 175.754 247.877 179.035C245.962 182.316 245.005 186.691 245.005 192.16C245.005 199.178 246.601 204.419 249.791 207.883C253.072 211.255 257.401 212.941 262.779 212.941C268.795 212.941 274.309 211.3 279.322 208.019C284.244 204.738 288.117 200.226 290.943 194.484C293.768 188.651 295.181 182.498 295.181 176.027V168.508Z" fill="#353744"/>
<path d="M325.211 85.4724C322.758 85.4724 320.844 84.8083 319.469 83.4802C318.094 82.1365 317.406 80.2537 317.406 77.8318C317.406 75.2068 318.258 73.2146 319.961 71.8552C321.68 70.4958 324.164 69.7849 327.414 69.7224L332.875 69.6287V68.3396C332.875 66.6833 332.586 65.4568 332.008 64.6599C331.43 63.8474 330.484 63.4412 329.172 63.4412C327.953 63.4412 327.055 63.7224 326.477 64.2849C325.914 64.8318 325.562 65.7458 325.422 67.0271L318.555 66.699C319.414 61.6833 323.047 59.1755 329.453 59.1755C332.656 59.1755 335.125 59.9646 336.859 61.5427C338.594 63.1208 339.461 65.363 339.461 68.2693V77.5037C339.461 78.9255 339.617 79.9099 339.93 80.4568C340.258 80.988 340.797 81.2537 341.547 81.2537C342.047 81.2537 342.531 81.2068 343 81.113V84.6755C342.188 84.8787 341.492 85.0271 340.914 85.1208C340.336 85.2302 339.625 85.2849 338.781 85.2849C337.125 85.2849 335.898 84.8787 335.102 84.0662C334.32 83.2537 333.852 82.0583 333.695 80.4802H333.555C332.633 82.1365 331.477 83.3865 330.086 84.2302C328.695 85.0583 327.07 85.4724 325.211 85.4724ZM332.875 73.2615L329.5 73.3083C327.953 73.3865 326.867 73.5505 326.242 73.8005C325.602 74.0818 325.109 74.5037 324.766 75.0662C324.438 75.6287 324.273 76.3787 324.273 77.3162C324.273 78.5193 324.547 79.4177 325.094 80.0115C325.656 80.5896 326.398 80.8787 327.32 80.8787C328.352 80.8787 329.297 80.5974 330.156 80.0349C331 79.4724 331.664 78.699 332.148 77.7146C332.633 76.7146 332.875 75.6599 332.875 74.5505V73.2615ZM351.696 72.5583V85.0037H345.11V65.5974C345.11 64.2068 345.087 63.0505 345.04 62.1287C345.009 61.1912 344.97 60.363 344.923 59.6443H351.204C351.235 59.7849 351.267 60.0974 351.298 60.5818C351.329 61.0662 351.36 61.613 351.392 62.2224C351.423 62.8162 351.446 63.3787 351.462 63.9099C351.493 64.4412 351.509 64.824 351.509 65.0583H351.603C352.228 63.3083 352.798 62.0505 353.313 61.2849C353.813 60.5505 354.407 60.0115 355.095 59.6677C355.782 59.324 356.642 59.1521 357.673 59.1521C358.517 59.1521 359.196 59.2693 359.712 59.5037V65.0115C358.665 64.7771 357.728 64.6599 356.899 64.6599C355.259 64.6599 353.978 65.324 353.056 66.6521C352.149 67.9802 351.696 69.949 351.696 72.5583ZM369.439 50.2224V55.074H362.853V50.2224H369.439ZM369.439 59.6443V85.0037H362.853V59.6443H369.439ZM381.839 71.4099V85.0037H375.253V65.3162C375.253 63.9568 375.229 62.8474 375.182 61.988C375.151 61.113 375.112 60.3318 375.065 59.6443H381.347C381.378 59.8318 381.417 60.2771 381.464 60.9802C381.511 61.6677 381.55 62.3787 381.581 63.113C381.628 63.8318 381.651 64.3552 381.651 64.6833H381.745C382.557 62.7458 383.565 61.3396 384.768 60.4646C385.987 59.5896 387.44 59.1521 389.128 59.1521C391.065 59.1521 392.62 59.613 393.792 60.5349C394.979 61.4568 395.776 62.8396 396.182 64.6833H396.323C397.182 62.7146 398.214 61.3005 399.417 60.4412C400.62 59.5818 402.151 59.1521 404.011 59.1521C406.479 59.1521 408.362 59.9958 409.659 61.6833C410.956 63.3552 411.604 65.7615 411.604 68.9021V85.0037H405.065V70.7771C405.065 68.5427 404.745 66.8708 404.104 65.7615C403.464 64.6521 402.503 64.0974 401.222 64.0974C399.94 64.0974 398.87 64.7224 398.011 65.9724C397.151 67.2068 396.722 68.9177 396.722 71.1052V85.0037H390.182V70.7771C390.182 68.5427 389.862 66.8708 389.222 65.7615C388.581 64.6521 387.62 64.0974 386.339 64.0974C385.011 64.0974 383.925 64.7771 383.081 66.1365C382.253 67.4958 381.839 69.2537 381.839 71.4099ZM441.09 72.3005C441.09 76.4099 439.949 79.6365 437.668 81.9802C435.387 84.3083 432.23 85.4724 428.199 85.4724C424.246 85.4724 421.144 84.3005 418.894 81.9568C416.644 79.613 415.519 76.3943 415.519 72.3005C415.519 68.2224 416.644 65.0193 418.894 62.6912C421.144 60.3474 424.293 59.1755 428.34 59.1755C432.48 59.1755 435.637 60.3083 437.808 62.574C439.996 64.824 441.09 68.0662 441.09 72.3005ZM434.199 72.3005C434.199 69.2849 433.707 67.0974 432.723 65.738C431.738 64.3787 430.308 63.699 428.433 63.699C426.433 63.699 424.933 64.4177 423.933 65.8552C422.933 67.2771 422.433 69.4255 422.433 72.3005C422.433 75.1287 422.918 77.2849 423.887 78.7693C424.871 80.238 426.285 80.9724 428.129 80.9724C430.16 80.9724 431.676 80.2537 432.676 78.8162C433.691 77.363 434.199 75.1912 434.199 72.3005Z" fill="#353744"/>
</svg>
