<svg width="58" height="48" viewBox="0 0 58 48" fill="none" xmlns="http://www.w3.org/2000/svg">
<path opacity="0.1" d="M58 5.45414C52.6746 9.50089 48.8543 13.3742 46.5389 17.0741C44.3393 20.6583 43.2395 24.6472 43.2395 29.0409C44.7445 28.1159 46.481 27.6534 48.4491 27.6534C51.1118 27.6534 53.2535 28.5784 54.8742 30.4283C56.6108 32.1626 57.479 34.4172 57.479 37.1922C57.479 40.3139 56.3792 42.8576 54.1796 44.8231C52.0958 46.7887 49.2595 47.7715 45.6707 47.7715C37.4511 47.7715 33.3413 42.3373 33.3413 31.4689C33.3413 28.5784 33.6886 25.9191 34.3832 23.491C35.0778 20.9474 36.1776 18.5193 37.6826 16.2069C39.3034 13.7789 41.4451 11.3508 44.1078 8.92277C46.7705 6.37911 50.0699 3.66201 54.006 0.771484L58 5.45414ZM24.6587 5.45414C19.3333 9.50089 15.513 13.3742 13.1976 17.0741C10.998 20.6583 9.8982 24.6472 9.8982 29.0409C11.4032 28.1159 13.1397 27.6534 15.1078 27.6534C17.7705 27.6534 19.9122 28.5784 21.5329 30.4283C23.2695 32.1626 24.1377 34.4172 24.1377 37.1922C24.1377 40.3139 23.0379 42.8576 20.8383 44.8231C18.7545 46.7887 15.9182 47.7715 12.3293 47.7715C4.10978 47.7715 0 42.3373 0 31.4689C0 28.5784 0.347305 25.9191 1.04192 23.491C1.73653 20.9474 2.83633 18.5193 4.34132 16.2069C5.96208 13.7789 8.10379 11.3508 10.7665 8.92277C13.4291 6.37911 16.7285 3.66201 20.6647 0.771484L24.6587 5.45414Z" fill="#76727E"/>
</svg>
