<svg width="550" height="404" viewBox="0 0 550 404" fill="none" xmlns="http://www.w3.org/2000/svg">
<g filter="url(#filter0_d_403_7094)">
<rect width="469.984" height="323.056" transform="translate(40.0161 24)" fill="white"/>
<rect x="108.881" y="91.376" width="116.258" height="149.049" rx="58.1291" fill="#F25A5A"/>
<rect x="88.8856" y="72.8695" width="156.253" height="185.317" rx="66.2026" stroke="#F25A5A" stroke-width="1.7389"/>
<path d="M126.984 287.488L126.616 288.768H129.288L128.92 287.488C128.75 286.933 128.584 286.363 128.424 285.776C128.275 285.189 128.126 284.608 127.976 284.032H127.912C127.774 284.619 127.624 285.205 127.464 285.792C127.315 286.368 127.155 286.933 126.984 287.488ZM123.48 293.056L126.888 282.592H129.064L132.472 293.056H130.52L129.704 290.224H126.184L125.368 293.056H123.48ZM136.882 293.248C136.167 293.248 135.522 293.088 134.946 292.768C134.381 292.437 133.927 291.968 133.586 291.36C133.255 290.741 133.09 290 133.09 289.136C133.09 288.261 133.271 287.52 133.634 286.912C133.997 286.293 134.477 285.824 135.074 285.504C135.682 285.173 136.333 285.008 137.026 285.008C137.527 285.008 137.965 285.093 138.338 285.264C138.711 285.435 139.042 285.643 139.33 285.888L138.434 287.088C138.231 286.907 138.023 286.768 137.81 286.672C137.597 286.565 137.367 286.512 137.122 286.512C136.493 286.512 135.975 286.752 135.57 287.232C135.175 287.712 134.978 288.347 134.978 289.136C134.978 289.915 135.17 290.544 135.554 291.024C135.949 291.504 136.455 291.744 137.074 291.744C137.383 291.744 137.671 291.68 137.938 291.552C138.215 291.413 138.466 291.253 138.69 291.072L139.442 292.288C139.079 292.608 138.674 292.848 138.226 293.008C137.778 293.168 137.33 293.248 136.882 293.248ZM143.882 293.248C143.167 293.248 142.522 293.088 141.946 292.768C141.381 292.437 140.927 291.968 140.586 291.36C140.255 290.741 140.09 290 140.09 289.136C140.09 288.261 140.271 287.52 140.634 286.912C140.997 286.293 141.477 285.824 142.074 285.504C142.682 285.173 143.333 285.008 144.026 285.008C144.527 285.008 144.965 285.093 145.338 285.264C145.711 285.435 146.042 285.643 146.33 285.888L145.434 287.088C145.231 286.907 145.023 286.768 144.81 286.672C144.597 286.565 144.367 286.512 144.122 286.512C143.493 286.512 142.975 286.752 142.57 287.232C142.175 287.712 141.978 288.347 141.978 289.136C141.978 289.915 142.17 290.544 142.554 291.024C142.949 291.504 143.455 291.744 144.074 291.744C144.383 291.744 144.671 291.68 144.938 291.552C145.215 291.413 145.466 291.253 145.69 291.072L146.442 292.288C146.079 292.608 145.674 292.848 145.226 293.008C144.778 293.168 144.33 293.248 143.882 293.248ZM150.962 293.248C150.237 293.248 149.581 293.088 148.994 292.768C148.407 292.437 147.943 291.968 147.602 291.36C147.261 290.741 147.09 290 147.09 289.136C147.09 288.283 147.261 287.547 147.602 286.928C147.954 286.309 148.407 285.835 148.962 285.504C149.517 285.173 150.098 285.008 150.706 285.008C151.421 285.008 152.018 285.168 152.498 285.488C152.978 285.797 153.341 286.235 153.586 286.8C153.831 287.355 153.954 288 153.954 288.736C153.954 289.12 153.927 289.419 153.874 289.632H148.882C148.967 290.325 149.218 290.864 149.634 291.248C150.05 291.632 150.573 291.824 151.202 291.824C151.543 291.824 151.858 291.776 152.146 291.68C152.445 291.573 152.738 291.429 153.026 291.248L153.65 292.4C153.277 292.645 152.861 292.848 152.402 293.008C151.943 293.168 151.463 293.248 150.962 293.248ZM148.866 288.384H152.354C152.354 287.776 152.221 287.301 151.954 286.96C151.687 286.608 151.287 286.432 150.754 286.432C150.295 286.432 149.885 286.603 149.522 286.944C149.17 287.275 148.951 287.755 148.866 288.384ZM155.711 293.056V285.2H157.231L157.359 286.256H157.423C157.775 285.915 158.159 285.621 158.575 285.376C158.991 285.131 159.466 285.008 159.999 285.008C160.842 285.008 161.455 285.28 161.839 285.824C162.223 286.368 162.415 287.136 162.415 288.128V293.056H160.575V288.368C160.575 287.717 160.479 287.259 160.287 286.992C160.095 286.725 159.781 286.592 159.343 286.592C159.002 286.592 158.698 286.677 158.431 286.848C158.175 287.008 157.882 287.248 157.551 287.568V293.056H155.711ZM167.433 293.248C166.526 293.248 165.881 292.987 165.497 292.464C165.123 291.931 164.937 291.243 164.937 290.4V286.656H163.817V285.28L165.033 285.2L165.257 283.056H166.793V285.2H168.793V286.656H166.793V290.4C166.793 291.317 167.161 291.776 167.897 291.776C168.035 291.776 168.179 291.76 168.329 291.728C168.478 291.685 168.606 291.643 168.713 291.6L169.033 292.96C168.819 293.035 168.574 293.099 168.297 293.152C168.03 293.216 167.742 293.248 167.433 293.248ZM177.985 293.248C177.11 293.248 176.316 293.04 175.601 292.624C174.886 292.208 174.316 291.6 173.889 290.8C173.473 289.989 173.265 289.008 173.265 287.856C173.265 286.715 173.478 285.739 173.905 284.928C174.342 284.107 174.924 283.483 175.649 283.056C176.374 282.619 177.174 282.4 178.049 282.4C178.71 282.4 179.297 282.533 179.809 282.8C180.321 283.067 180.742 283.376 181.073 283.728L180.081 284.928C179.814 284.651 179.516 284.432 179.185 284.272C178.865 284.101 178.502 284.016 178.097 284.016C177.532 284.016 177.025 284.171 176.577 284.48C176.14 284.779 175.793 285.211 175.537 285.776C175.292 286.341 175.169 287.019 175.169 287.808C175.169 289.003 175.43 289.941 175.953 290.624C176.476 291.296 177.174 291.632 178.049 291.632C178.518 291.632 178.934 291.536 179.297 291.344C179.66 291.141 179.99 290.88 180.289 290.56L181.281 291.728C180.854 292.219 180.364 292.597 179.809 292.864C179.265 293.12 178.657 293.248 177.985 293.248ZM186.084 293.248C185.433 293.248 184.825 293.088 184.26 292.768C183.694 292.437 183.236 291.968 182.884 291.36C182.532 290.741 182.356 290 182.356 289.136C182.356 288.261 182.532 287.52 182.884 286.912C183.236 286.293 183.694 285.824 184.26 285.504C184.825 285.173 185.433 285.008 186.084 285.008C186.745 285.008 187.358 285.173 187.924 285.504C188.489 285.824 188.948 286.293 189.3 286.912C189.652 287.52 189.828 288.261 189.828 289.136C189.828 290 189.652 290.741 189.3 291.36C188.948 291.968 188.489 292.437 187.924 292.768C187.358 293.088 186.745 293.248 186.084 293.248ZM186.084 291.744C186.66 291.744 187.113 291.504 187.444 291.024C187.774 290.544 187.94 289.915 187.94 289.136C187.94 288.347 187.774 287.712 187.444 287.232C187.113 286.752 186.66 286.512 186.084 286.512C185.508 286.512 185.054 286.752 184.724 287.232C184.404 287.712 184.244 288.347 184.244 289.136C184.244 289.915 184.404 290.544 184.724 291.024C185.054 291.504 185.508 291.744 186.084 291.744ZM193.441 293.248C192.79 293.248 192.326 293.051 192.049 292.656C191.782 292.261 191.649 291.723 191.649 291.04V281.76H193.489V291.136C193.489 291.36 193.532 291.52 193.617 291.616C193.702 291.701 193.793 291.744 193.889 291.744C193.932 291.744 193.969 291.744 194.001 291.744C194.044 291.733 194.102 291.723 194.177 291.712L194.417 293.088C194.31 293.131 194.172 293.168 194.001 293.2C193.841 293.232 193.654 293.248 193.441 293.248ZM199.209 293.248C198.558 293.248 197.95 293.088 197.385 292.768C196.819 292.437 196.361 291.968 196.009 291.36C195.657 290.741 195.481 290 195.481 289.136C195.481 288.261 195.657 287.52 196.009 286.912C196.361 286.293 196.819 285.824 197.385 285.504C197.95 285.173 198.558 285.008 199.209 285.008C199.87 285.008 200.483 285.173 201.049 285.504C201.614 285.824 202.073 286.293 202.425 286.912C202.777 287.52 202.953 288.261 202.953 289.136C202.953 290 202.777 290.741 202.425 291.36C202.073 291.968 201.614 292.437 201.049 292.768C200.483 293.088 199.87 293.248 199.209 293.248ZM199.209 291.744C199.785 291.744 200.238 291.504 200.569 291.024C200.899 290.544 201.065 289.915 201.065 289.136C201.065 288.347 200.899 287.712 200.569 287.232C200.238 286.752 199.785 286.512 199.209 286.512C198.633 286.512 198.179 286.752 197.849 287.232C197.529 287.712 197.369 288.347 197.369 289.136C197.369 289.915 197.529 290.544 197.849 291.024C198.179 291.504 198.633 291.744 199.209 291.744ZM204.774 293.056V285.2H206.294L206.422 286.592H206.486C206.763 286.08 207.099 285.691 207.494 285.424C207.889 285.147 208.294 285.008 208.71 285.008C209.083 285.008 209.382 285.061 209.606 285.168L209.286 286.768C209.147 286.725 209.019 286.693 208.902 286.672C208.785 286.651 208.641 286.64 208.47 286.64C208.161 286.64 207.835 286.763 207.494 287.008C207.153 287.243 206.859 287.659 206.614 288.256V293.056H204.774Z" fill="#333333"/>
<rect x="324.874" y="91.376" width="116.258" height="149.049" rx="58.1291" fill="#170909"/>
<rect x="304.878" y="72.8695" width="156.253" height="185.317" rx="66.2026" stroke="#170909" stroke-width="1.7389"/>
<path d="M337.332 293.056V282.592H340.628C341.407 282.592 342.1 282.693 342.708 282.896C343.316 283.099 343.796 283.435 344.148 283.904C344.5 284.373 344.676 285.013 344.676 285.824C344.676 286.592 344.5 287.227 344.148 287.728C343.796 288.229 343.322 288.603 342.724 288.848C342.127 289.093 341.45 289.216 340.692 289.216H339.188V293.056H337.332ZM339.188 287.728H340.548C342.084 287.728 342.852 287.093 342.852 285.824C342.852 285.163 342.65 284.709 342.244 284.464C341.85 284.208 341.263 284.08 340.484 284.08H339.188V287.728ZM346.485 293.056V285.2H348.005L348.133 286.592H348.197C348.474 286.08 348.81 285.691 349.205 285.424C349.6 285.147 350.005 285.008 350.421 285.008C350.794 285.008 351.093 285.061 351.317 285.168L350.997 286.768C350.858 286.725 350.73 286.693 350.613 286.672C350.496 286.651 350.352 286.64 350.181 286.64C349.872 286.64 349.546 286.763 349.205 287.008C348.864 287.243 348.57 287.659 348.325 288.256V293.056H346.485ZM352.454 293.056V285.2H354.294V293.056H352.454ZM353.382 283.824C353.051 283.824 352.784 283.728 352.582 283.536C352.379 283.344 352.278 283.088 352.278 282.768C352.278 282.459 352.379 282.208 352.582 282.016C352.784 281.824 353.051 281.728 353.382 281.728C353.712 281.728 353.979 281.824 354.182 282.016C354.384 282.208 354.486 282.459 354.486 282.768C354.486 283.088 354.384 283.344 354.182 283.536C353.979 283.728 353.712 283.824 353.382 283.824ZM356.641 293.056V285.2H358.161L358.289 286.272H358.353C358.684 285.92 359.041 285.621 359.425 285.376C359.82 285.131 360.262 285.008 360.753 285.008C361.329 285.008 361.788 285.136 362.129 285.392C362.481 285.637 362.748 285.979 362.929 286.416C363.302 286.011 363.692 285.675 364.097 285.408C364.513 285.141 364.966 285.008 365.457 285.008C366.289 285.008 366.902 285.28 367.297 285.824C367.692 286.368 367.889 287.136 367.889 288.128V293.056H366.033V288.368C366.033 287.717 365.932 287.259 365.729 286.992C365.537 286.725 365.238 286.592 364.833 286.592C364.342 286.592 363.793 286.917 363.185 287.568V293.056H361.345V288.368C361.345 287.717 361.244 287.259 361.041 286.992C360.849 286.725 360.545 286.592 360.129 286.592C359.638 286.592 359.089 286.917 358.481 287.568V293.056H356.641ZM372.03 293.248C371.347 293.248 370.787 293.035 370.35 292.608C369.923 292.181 369.71 291.627 369.71 290.944C369.71 290.101 370.078 289.451 370.814 288.992C371.55 288.523 372.723 288.203 374.334 288.032C374.323 287.616 374.211 287.259 373.998 286.96C373.795 286.651 373.427 286.496 372.894 286.496C372.51 286.496 372.131 286.571 371.758 286.72C371.395 286.869 371.038 287.051 370.686 287.264L370.014 286.032C370.451 285.755 370.942 285.515 371.486 285.312C372.04 285.109 372.627 285.008 373.246 285.008C374.227 285.008 374.958 285.301 375.438 285.888C375.928 286.464 376.174 287.301 376.174 288.4V293.056H374.654L374.526 292.192H374.462C374.11 292.491 373.731 292.741 373.326 292.944C372.931 293.147 372.499 293.248 372.03 293.248ZM372.622 291.808C372.942 291.808 373.23 291.733 373.486 291.584C373.752 291.424 374.035 291.211 374.334 290.944V289.184C373.267 289.323 372.526 289.531 372.11 289.808C371.694 290.075 371.486 290.405 371.486 290.8C371.486 291.152 371.592 291.408 371.806 291.568C372.019 291.728 372.291 291.808 372.622 291.808ZM378.376 293.056V285.2H379.896L380.024 286.592H380.088C380.365 286.08 380.701 285.691 381.096 285.424C381.49 285.147 381.896 285.008 382.312 285.008C382.685 285.008 382.984 285.061 383.208 285.168L382.888 286.768C382.749 286.725 382.621 286.693 382.504 286.672C382.386 286.651 382.242 286.64 382.072 286.64C381.762 286.64 381.437 286.763 381.096 287.008C380.754 287.243 380.461 287.659 380.216 288.256V293.056H378.376ZM385.122 296.288C384.909 296.288 384.722 296.272 384.562 296.24C384.402 296.208 384.248 296.171 384.098 296.128L384.434 294.688C384.509 294.709 384.594 294.731 384.69 294.752C384.797 294.784 384.898 294.8 384.994 294.8C385.41 294.8 385.741 294.672 385.986 294.416C386.242 294.171 386.434 293.851 386.562 293.456L386.706 292.96L383.618 285.2H385.49L386.85 289.056C386.968 289.397 387.08 289.76 387.186 290.144C387.304 290.517 387.421 290.891 387.538 291.264H387.602C387.698 290.901 387.794 290.533 387.89 290.16C387.997 289.776 388.098 289.408 388.194 289.056L389.378 285.2H391.154L388.306 293.408C387.976 294.293 387.576 294.992 387.106 295.504C386.637 296.027 385.976 296.288 385.122 296.288ZM398.999 293.248C398.285 293.248 397.639 293.088 397.063 292.768C396.498 292.437 396.045 291.968 395.703 291.36C395.373 290.741 395.207 290 395.207 289.136C395.207 288.261 395.389 287.52 395.751 286.912C396.114 286.293 396.594 285.824 397.191 285.504C397.799 285.173 398.45 285.008 399.143 285.008C399.645 285.008 400.082 285.093 400.455 285.264C400.829 285.435 401.159 285.643 401.447 285.888L400.551 287.088C400.349 286.907 400.141 286.768 399.927 286.672C399.714 286.565 399.485 286.512 399.239 286.512C398.61 286.512 398.093 286.752 397.687 287.232C397.293 287.712 397.095 288.347 397.095 289.136C397.095 289.915 397.287 290.544 397.671 291.024C398.066 291.504 398.573 291.744 399.191 291.744C399.501 291.744 399.789 291.68 400.055 291.552C400.333 291.413 400.583 291.253 400.807 291.072L401.559 292.288C401.197 292.608 400.791 292.848 400.343 293.008C399.895 293.168 399.447 293.248 398.999 293.248ZM405.935 293.248C405.285 293.248 404.677 293.088 404.111 292.768C403.546 292.437 403.087 291.968 402.735 291.36C402.383 290.741 402.207 290 402.207 289.136C402.207 288.261 402.383 287.52 402.735 286.912C403.087 286.293 403.546 285.824 404.111 285.504C404.677 285.173 405.285 285.008 405.935 285.008C406.597 285.008 407.21 285.173 407.775 285.504C408.341 285.824 408.799 286.293 409.151 286.912C409.503 287.52 409.679 288.261 409.679 289.136C409.679 290 409.503 290.741 409.151 291.36C408.799 291.968 408.341 292.437 407.775 292.768C407.21 293.088 406.597 293.248 405.935 293.248ZM405.935 291.744C406.511 291.744 406.965 291.504 407.295 291.024C407.626 290.544 407.791 289.915 407.791 289.136C407.791 288.347 407.626 287.712 407.295 287.232C406.965 286.752 406.511 286.512 405.935 286.512C405.359 286.512 404.906 286.752 404.575 287.232C404.255 287.712 404.095 288.347 404.095 289.136C404.095 289.915 404.255 290.544 404.575 291.024C404.906 291.504 405.359 291.744 405.935 291.744ZM413.293 293.248C412.642 293.248 412.178 293.051 411.901 292.656C411.634 292.261 411.501 291.723 411.501 291.04V281.76H413.341V291.136C413.341 291.36 413.383 291.52 413.469 291.616C413.554 291.701 413.645 291.744 413.741 291.744C413.783 291.744 413.821 291.744 413.853 291.744C413.895 291.733 413.954 291.723 414.029 291.712L414.269 293.088C414.162 293.131 414.023 293.168 413.853 293.2C413.693 293.232 413.506 293.248 413.293 293.248ZM419.06 293.248C418.41 293.248 417.802 293.088 417.236 292.768C416.671 292.437 416.212 291.968 415.86 291.36C415.508 290.741 415.332 290 415.332 289.136C415.332 288.261 415.508 287.52 415.86 286.912C416.212 286.293 416.671 285.824 417.236 285.504C417.802 285.173 418.41 285.008 419.06 285.008C419.722 285.008 420.335 285.173 420.9 285.504C421.466 285.824 421.924 286.293 422.276 286.912C422.628 287.52 422.804 288.261 422.804 289.136C422.804 290 422.628 290.741 422.276 291.36C421.924 291.968 421.466 292.437 420.9 292.768C420.335 293.088 419.722 293.248 419.06 293.248ZM419.06 291.744C419.636 291.744 420.09 291.504 420.42 291.024C420.751 290.544 420.916 289.915 420.916 289.136C420.916 288.347 420.751 287.712 420.42 287.232C420.09 286.752 419.636 286.512 419.06 286.512C418.484 286.512 418.031 286.752 417.7 287.232C417.38 287.712 417.22 288.347 417.22 289.136C417.22 289.915 417.38 290.544 417.7 291.024C418.031 291.504 418.484 291.744 419.06 291.744ZM424.626 293.056V285.2H426.146L426.274 286.592H426.338C426.615 286.08 426.951 285.691 427.346 285.424C427.74 285.147 428.146 285.008 428.562 285.008C428.935 285.008 429.234 285.061 429.458 285.168L429.138 286.768C428.999 286.725 428.871 286.693 428.754 286.672C428.636 286.651 428.492 286.64 428.322 286.64C428.012 286.64 427.687 286.763 427.346 287.008C427.004 287.243 426.711 287.659 426.466 288.256V293.056H424.626Z" fill="#333333"/>
</g>
<defs>
<filter id="filter0_d_403_7094" x="0.0161133" y="0" width="549.984" height="403.056" filterUnits="userSpaceOnUse" color-interpolation-filters="sRGB">
<feFlood flood-opacity="0" result="BackgroundImageFix"/>
<feColorMatrix in="SourceAlpha" type="matrix" values="0 0 0 0 0 0 0 0 0 0 0 0 0 0 0 0 0 0 127 0" result="hardAlpha"/>
<feMorphology radius="4" operator="erode" in="SourceAlpha" result="effect1_dropShadow_403_7094"/>
<feOffset dy="16"/>
<feGaussianBlur stdDeviation="22"/>
<feComposite in2="hardAlpha" operator="out"/>
<feColorMatrix type="matrix" values="0 0 0 0 0 0 0 0 0 0 0 0 0 0 0 0 0 0 0.07 0"/>
<feBlend mode="normal" in2="BackgroundImageFix" result="effect1_dropShadow_403_7094"/>
<feBlend mode="normal" in="SourceGraphic" in2="effect1_dropShadow_403_7094" result="shape"/>
</filter>
</defs>
</svg>
