<svg width="550" height="282" viewBox="0 0 550 282" fill="none" xmlns="http://www.w3.org/2000/svg">
<g filter="url(#filter0_d_403_7086)">
<rect width="470" height="202" transform="translate(40 24)" fill="white"/>
<path d="M106.924 89V81.176H108.736L110.776 85.064L111.544 86.792H111.592C111.56 86.376 111.516 85.912 111.46 85.4C111.404 84.888 111.376 84.4 111.376 83.936V81.176H113.056V89H111.244L109.204 85.1L108.436 83.396H108.388C108.428 83.828 108.472 84.292 108.52 84.788C108.576 85.284 108.604 85.764 108.604 86.228V89H106.924ZM117.988 89.144C116.972 89.144 116.196 88.844 115.66 88.244C115.124 87.644 114.856 86.688 114.856 85.376V81.176H116.632V85.556C116.632 86.324 116.748 86.86 116.98 87.164C117.212 87.468 117.548 87.62 117.988 87.62C118.428 87.62 118.768 87.468 119.008 87.164C119.248 86.86 119.368 86.324 119.368 85.556V81.176H121.072V85.376C121.072 86.688 120.808 87.644 120.28 88.244C119.76 88.844 118.996 89.144 117.988 89.144ZM122.885 89V81.176H124.697L126.737 85.064L127.505 86.792H127.553C127.521 86.376 127.477 85.912 127.421 85.4C127.365 84.888 127.337 84.4 127.337 83.936V81.176H129.017V89H127.205L125.165 85.1L124.397 83.396H124.349C124.389 83.828 124.433 84.292 124.481 84.788C124.537 85.284 124.565 85.764 124.565 86.228V89H122.885ZM130.865 89V81.176H132.629V89H130.865ZM135.999 89V82.664H133.851V81.176H139.923V82.664H137.775V89H135.999ZM143.983 89.144C143.279 89.144 142.659 88.98 142.123 88.652C141.595 88.324 141.179 87.856 140.875 87.248C140.579 86.632 140.431 85.9 140.431 85.052C140.431 84.196 140.579 83.472 140.875 82.88C141.179 82.28 141.595 81.824 142.123 81.512C142.659 81.192 143.279 81.032 143.983 81.032C144.687 81.032 145.303 81.192 145.831 81.512C146.367 81.824 146.783 82.28 147.079 82.88C147.383 83.48 147.535 84.204 147.535 85.052C147.535 85.9 147.383 86.632 147.079 87.248C146.783 87.856 146.367 88.324 145.831 88.652C145.303 88.98 144.687 89.144 143.983 89.144ZM143.983 87.62C144.519 87.62 144.943 87.388 145.255 86.924C145.567 86.46 145.723 85.836 145.723 85.052C145.723 84.268 145.567 83.656 145.255 83.216C144.943 82.776 144.519 82.556 143.983 82.556C143.447 82.556 143.023 82.776 142.711 83.216C142.399 83.656 142.243 84.268 142.243 85.052C142.243 85.836 142.399 86.46 142.711 86.924C143.023 87.388 143.447 87.62 143.983 87.62Z" fill="#333333"/>
<path d="M92.992 163.448C92.1387 163.448 91.456 163.256 90.944 162.872C90.432 162.488 90.1333 161.976 90.048 161.336C89.9627 160.696 90.0907 159.971 90.432 159.16L107.776 120.248C108.203 119.224 108.736 118.499 109.376 118.072C110.059 117.645 110.805 117.432 111.616 117.432C112.384 117.432 113.088 117.645 113.728 118.072C114.411 118.499 114.965 119.224 115.392 120.248L132.736 159.16C133.12 159.971 133.269 160.717 133.184 161.4C133.099 162.04 132.821 162.552 132.352 162.936C131.883 163.277 131.221 163.448 130.368 163.448C129.429 163.448 128.683 163.213 128.128 162.744C127.573 162.275 127.083 161.549 126.656 160.568L122.176 150.2L125.184 151.992H97.92L100.864 150.2L96.448 160.568C96.0213 161.592 95.552 162.339 95.04 162.808C94.528 163.235 93.8453 163.448 92.992 163.448ZM111.488 125.24L101.824 148.152L100.224 146.616H122.816L121.344 148.152L111.616 125.24H111.488ZM146.453 163.576C144.277 163.576 142.314 163.149 140.565 162.296C138.858 161.443 137.514 160.291 136.533 158.84C135.552 157.389 135.061 155.747 135.061 153.912C135.061 151.608 135.637 149.795 136.789 148.472C137.984 147.107 139.925 146.147 142.613 145.592C145.344 144.995 149.013 144.696 153.621 144.696H156.629V148.664H153.685C150.613 148.664 148.181 148.813 146.389 149.112C144.597 149.411 143.317 149.923 142.549 150.648C141.824 151.331 141.461 152.291 141.461 153.528C141.461 155.149 142.016 156.472 143.125 157.496C144.234 158.477 145.77 158.968 147.733 158.968C149.312 158.968 150.698 158.605 151.893 157.88C153.088 157.112 154.026 156.088 154.709 154.808C155.434 153.528 155.797 152.056 155.797 150.392V143.032C155.797 140.6 155.285 138.851 154.261 137.784C153.237 136.717 151.552 136.184 149.205 136.184C147.84 136.184 146.41 136.355 144.917 136.696C143.466 137.037 141.952 137.613 140.373 138.424C139.648 138.765 139.029 138.872 138.517 138.744C138.005 138.616 137.6 138.339 137.301 137.912C137.002 137.443 136.832 136.952 136.789 136.44C136.789 135.885 136.917 135.352 137.173 134.84C137.472 134.328 137.962 133.944 138.645 133.688C140.522 132.792 142.378 132.152 144.213 131.768C146.048 131.384 147.776 131.192 149.397 131.192C152.256 131.192 154.602 131.64 156.437 132.536C158.314 133.432 159.701 134.797 160.597 136.632C161.493 138.467 161.941 140.835 161.941 143.736V160.184C161.941 161.208 161.685 162.019 161.173 162.616C160.661 163.171 159.914 163.448 158.933 163.448C157.994 163.448 157.248 163.171 156.693 162.616C156.138 162.019 155.861 161.208 155.861 160.184V156.024H156.437C156.096 157.603 155.456 158.968 154.517 160.12C153.621 161.229 152.49 162.083 151.125 162.68C149.76 163.277 148.202 163.576 146.453 163.576Z" fill="#5D5353"/>
<path d="M307.924 85V77.176H309.736L311.776 81.064L312.544 82.792H312.592C312.56 82.376 312.516 81.912 312.46 81.4C312.404 80.888 312.376 80.4 312.376 79.936V77.176H314.056V85H312.244L310.204 81.1L309.436 79.396H309.388C309.428 79.828 309.472 80.292 309.52 80.788C309.576 81.284 309.604 81.764 309.604 82.228V85H307.924ZM318.988 85.144C317.972 85.144 317.196 84.844 316.66 84.244C316.124 83.644 315.856 82.688 315.856 81.376V77.176H317.632V81.556C317.632 82.324 317.748 82.86 317.98 83.164C318.212 83.468 318.548 83.62 318.988 83.62C319.428 83.62 319.768 83.468 320.008 83.164C320.248 82.86 320.368 82.324 320.368 81.556V77.176H322.072V81.376C322.072 82.688 321.808 83.644 321.28 84.244C320.76 84.844 319.996 85.144 318.988 85.144ZM323.885 85V77.176H325.697L327.737 81.064L328.505 82.792H328.553C328.521 82.376 328.477 81.912 328.421 81.4C328.365 80.888 328.337 80.4 328.337 79.936V77.176H330.017V85H328.205L326.165 81.1L325.397 79.396H325.349C325.389 79.828 325.433 80.292 325.481 80.788C325.537 81.284 325.565 81.764 325.565 82.228V85H323.885ZM331.865 85V77.176H333.629V85H331.865ZM336.999 85V78.664H334.851V77.176H340.923V78.664H338.775V85H336.999ZM344.983 85.144C344.279 85.144 343.659 84.98 343.123 84.652C342.595 84.324 342.179 83.856 341.875 83.248C341.579 82.632 341.431 81.9 341.431 81.052C341.431 80.196 341.579 79.472 341.875 78.88C342.179 78.28 342.595 77.824 343.123 77.512C343.659 77.192 344.279 77.032 344.983 77.032C345.687 77.032 346.303 77.192 346.831 77.512C347.367 77.824 347.783 78.28 348.079 78.88C348.383 79.48 348.535 80.204 348.535 81.052C348.535 81.9 348.383 82.632 348.079 83.248C347.783 83.856 347.367 84.324 346.831 84.652C346.303 84.98 345.687 85.144 344.983 85.144ZM344.983 83.62C345.519 83.62 345.943 83.388 346.255 82.924C346.567 82.46 346.723 81.836 346.723 81.052C346.723 80.268 346.567 79.656 346.255 79.216C345.943 78.776 345.519 78.556 344.983 78.556C344.447 78.556 344.023 78.776 343.711 79.216C343.399 79.656 343.243 80.268 343.243 81.052C343.243 81.836 343.399 82.46 343.711 82.924C344.023 83.388 344.447 83.62 344.983 83.62ZM354.796 85.144C354.284 85.144 353.772 85.048 353.26 84.856C352.756 84.664 352.304 84.384 351.904 84.016L352.912 82.804C353.192 83.044 353.504 83.24 353.848 83.392C354.192 83.544 354.524 83.62 354.844 83.62C355.212 83.62 355.484 83.552 355.66 83.416C355.844 83.28 355.936 83.096 355.936 82.864C355.936 82.616 355.832 82.436 355.624 82.324C355.424 82.204 355.152 82.072 354.808 81.928L353.788 81.496C353.524 81.384 353.272 81.236 353.032 81.052C352.792 80.86 352.596 80.624 352.444 80.344C352.292 80.064 352.216 79.736 352.216 79.36C352.216 78.928 352.332 78.536 352.564 78.184C352.804 77.832 353.132 77.552 353.548 77.344C353.972 77.136 354.456 77.032 355 77.032C355.448 77.032 355.896 77.12 356.344 77.296C356.792 77.472 357.184 77.728 357.52 78.064L356.62 79.18C356.364 78.98 356.108 78.828 355.852 78.724C355.596 78.612 355.312 78.556 355 78.556C354.696 78.556 354.452 78.62 354.268 78.748C354.092 78.868 354.004 79.04 354.004 79.264C354.004 79.504 354.116 79.684 354.34 79.804C354.572 79.924 354.856 80.052 355.192 80.188L356.2 80.596C356.672 80.788 357.048 81.052 357.328 81.388C357.608 81.724 357.748 82.168 357.748 82.72C357.748 83.152 357.632 83.552 357.4 83.92C357.168 84.288 356.832 84.584 356.392 84.808C355.952 85.032 355.42 85.144 354.796 85.144ZM360.912 81.04L360.72 81.76H362.388L362.208 81.04C362.104 80.648 361.996 80.232 361.884 79.792C361.78 79.352 361.676 78.928 361.572 78.52H361.524C361.428 78.936 361.328 79.364 361.224 79.804C361.128 80.236 361.024 80.648 360.912 81.04ZM358.08 85L360.528 77.176H362.652L365.1 85H363.228L362.748 83.14H360.36L359.88 85H358.08ZM365.955 85V77.176H367.767L369.807 81.064L370.575 82.792H370.623C370.591 82.376 370.547 81.912 370.491 81.4C370.435 80.888 370.407 80.4 370.407 79.936V77.176H372.087V85H370.275L368.235 81.1L367.467 79.396H367.419C367.459 79.828 367.503 80.292 367.551 80.788C367.607 81.284 367.635 81.764 367.635 82.228V85H365.955ZM376.324 85.144C375.812 85.144 375.3 85.048 374.788 84.856C374.284 84.664 373.832 84.384 373.432 84.016L374.44 82.804C374.72 83.044 375.032 83.24 375.376 83.392C375.72 83.544 376.052 83.62 376.372 83.62C376.74 83.62 377.012 83.552 377.188 83.416C377.372 83.28 377.464 83.096 377.464 82.864C377.464 82.616 377.36 82.436 377.152 82.324C376.952 82.204 376.68 82.072 376.336 81.928L375.316 81.496C375.052 81.384 374.8 81.236 374.56 81.052C374.32 80.86 374.124 80.624 373.972 80.344C373.82 80.064 373.744 79.736 373.744 79.36C373.744 78.928 373.86 78.536 374.092 78.184C374.332 77.832 374.66 77.552 375.076 77.344C375.5 77.136 375.984 77.032 376.528 77.032C376.976 77.032 377.424 77.12 377.872 77.296C378.32 77.472 378.712 77.728 379.048 78.064L378.148 79.18C377.892 78.98 377.636 78.828 377.38 78.724C377.124 78.612 376.84 78.556 376.528 78.556C376.224 78.556 375.98 78.62 375.796 78.748C375.62 78.868 375.532 79.04 375.532 79.264C375.532 79.504 375.644 79.684 375.868 79.804C376.1 79.924 376.384 80.052 376.72 80.188L377.728 80.596C378.2 80.788 378.576 81.052 378.856 81.388C379.136 81.724 379.276 82.168 379.276 82.72C379.276 83.152 379.16 83.552 378.928 83.92C378.696 84.288 378.36 84.584 377.92 84.808C377.48 85.032 376.948 85.144 376.324 85.144Z" fill="#333333"/>
<path d="M230.335 125.18C229.655 125.18 229.048 125.047 228.515 124.78C227.982 124.513 227.555 124.153 227.235 123.7C226.928 123.247 226.775 122.733 226.775 122.16C226.775 121.44 226.955 120.873 227.315 120.46C227.688 120.047 228.295 119.747 229.135 119.56C229.988 119.373 231.135 119.28 232.575 119.28H233.255V118.76C233.255 118 233.095 117.453 232.775 117.12C232.455 116.787 231.928 116.62 231.195 116.62C230.635 116.62 230.075 116.707 229.515 116.88C228.955 117.04 228.382 117.3 227.795 117.66L227.175 116.24C227.682 115.88 228.315 115.593 229.075 115.38C229.835 115.167 230.562 115.06 231.255 115.06C232.588 115.06 233.575 115.38 234.215 116.02C234.855 116.647 235.175 117.633 235.175 118.98V125H233.275V123.38C233.035 123.94 232.662 124.38 232.155 124.7C231.648 125.02 231.042 125.18 230.335 125.18ZM230.735 123.74C231.455 123.74 232.055 123.487 232.535 122.98C233.015 122.473 233.255 121.833 233.255 121.06V120.52H232.595C231.622 120.52 230.855 120.567 230.295 120.66C229.748 120.753 229.355 120.913 229.115 121.14C228.888 121.353 228.775 121.653 228.775 122.04C228.775 122.547 228.948 122.96 229.295 123.28C229.642 123.587 230.122 123.74 230.735 123.74ZM238.737 127.46L237.857 126.78C238.164 126.447 238.39 126.14 238.537 125.86C238.684 125.58 238.777 125.293 238.817 125H237.717V122.62H240.097V124.24C240.097 124.853 239.997 125.413 239.797 125.92C239.597 126.44 239.244 126.953 238.737 127.46ZM247.943 125.18C247.197 125.18 246.537 125.013 245.963 124.68C245.39 124.347 244.963 123.9 244.683 123.34V125H242.703V110.9H244.723V116.82C245.017 116.287 245.443 115.86 246.003 115.54C246.577 115.22 247.223 115.06 247.943 115.06C248.81 115.06 249.563 115.267 250.203 115.68C250.857 116.093 251.357 116.68 251.703 117.44C252.063 118.187 252.243 119.08 252.243 120.12C252.243 121.16 252.063 122.06 251.703 122.82C251.357 123.58 250.857 124.167 250.203 124.58C249.563 124.98 248.81 125.18 247.943 125.18ZM247.443 123.62C248.283 123.62 248.95 123.32 249.443 122.72C249.95 122.12 250.203 121.253 250.203 120.12C250.203 118.987 249.95 118.127 249.443 117.54C248.95 116.94 248.283 116.64 247.443 116.64C246.603 116.64 245.93 116.94 245.423 117.54C244.93 118.127 244.683 118.987 244.683 120.12C244.683 121.253 244.93 122.12 245.423 122.72C245.93 123.32 246.603 123.62 247.443 123.62ZM254.909 127.46L254.029 126.78C254.336 126.447 254.562 126.14 254.709 125.86C254.856 125.58 254.949 125.293 254.989 125H253.889V122.62H256.269V124.24C256.269 124.853 256.169 125.413 255.969 125.92C255.769 126.44 255.416 126.953 254.909 127.46ZM262.784 125.18C261.784 125.18 260.918 124.973 260.184 124.56C259.464 124.133 258.904 123.54 258.504 122.78C258.104 122.007 257.904 121.1 257.904 120.06C257.904 118.513 258.344 117.293 259.224 116.4C260.104 115.507 261.291 115.06 262.784 115.06C263.398 115.06 264.004 115.167 264.604 115.38C265.204 115.593 265.698 115.887 266.084 116.26L265.444 117.68C265.071 117.333 264.658 117.08 264.204 116.92C263.764 116.747 263.344 116.66 262.944 116.66C261.998 116.66 261.264 116.96 260.744 117.56C260.238 118.147 259.984 118.987 259.984 120.08C259.984 121.173 260.238 122.033 260.744 122.66C261.264 123.273 261.998 123.58 262.944 123.58C263.344 123.58 263.764 123.5 264.204 123.34C264.658 123.167 265.071 122.907 265.444 122.56L266.084 124C265.698 124.36 265.198 124.647 264.584 124.86C263.984 125.073 263.384 125.18 262.784 125.18ZM268.796 127.46L267.916 126.78C268.222 126.447 268.449 126.14 268.596 125.86C268.742 125.58 268.836 125.293 268.876 125H267.776V122.62H270.156V124.24C270.156 124.853 270.056 125.413 269.856 125.92C269.656 126.44 269.302 126.953 268.796 127.46ZM276.091 125.18C275.238 125.18 274.485 124.98 273.831 124.58C273.191 124.167 272.691 123.58 272.331 122.82C271.971 122.06 271.791 121.16 271.791 120.12C271.791 119.08 271.971 118.187 272.331 117.44C272.691 116.68 273.191 116.093 273.831 115.68C274.471 115.267 275.225 115.06 276.091 115.06C276.825 115.06 277.478 115.22 278.051 115.54C278.625 115.86 279.051 116.293 279.331 116.84V110.9H281.351V125H279.371V123.3C279.091 123.887 278.658 124.347 278.071 124.68C277.498 125.013 276.838 125.18 276.091 125.18ZM276.611 123.62C277.438 123.62 278.105 123.32 278.611 122.72C279.118 122.12 279.371 121.253 279.371 120.12C279.371 118.987 279.118 118.127 278.611 117.54C278.105 116.94 277.438 116.64 276.611 116.64C275.771 116.64 275.098 116.94 274.591 117.54C274.085 118.127 273.831 118.987 273.831 120.12C273.831 121.253 274.085 122.12 274.591 122.72C275.098 123.32 275.771 123.62 276.611 123.62ZM284.968 127.46L284.088 126.78C284.394 126.447 284.621 126.14 284.768 125.86C284.914 125.58 285.008 125.293 285.048 125H283.948V122.62H286.328V124.24C286.328 124.853 286.228 125.413 286.028 125.92C285.828 126.44 285.474 126.953 284.968 127.46ZM293.123 125.18C291.523 125.18 290.263 124.733 289.343 123.84C288.423 122.933 287.963 121.7 287.963 120.14C287.963 119.14 288.163 118.26 288.563 117.5C288.976 116.727 289.543 116.127 290.263 115.7C290.983 115.273 291.81 115.06 292.743 115.06C294.09 115.06 295.15 115.493 295.923 116.36C296.696 117.213 297.083 118.393 297.083 119.9V120.58H289.923C290.07 122.607 291.143 123.62 293.143 123.62C293.703 123.62 294.25 123.533 294.783 123.36C295.33 123.187 295.843 122.9 296.323 122.5L296.923 123.9C296.483 124.3 295.916 124.613 295.223 124.84C294.53 125.067 293.83 125.18 293.123 125.18ZM292.823 116.48C291.983 116.48 291.316 116.74 290.823 117.26C290.33 117.78 290.03 118.473 289.923 119.34H295.383C295.343 118.433 295.103 117.733 294.663 117.24C294.223 116.733 293.61 116.48 292.823 116.48ZM300.065 127.46L299.185 126.78C299.492 126.447 299.719 126.14 299.865 125.86C300.012 125.58 300.105 125.293 300.145 125H299.045V122.62H301.425V124.24C301.425 124.853 301.325 125.413 301.125 125.92C300.925 126.44 300.572 126.953 300.065 127.46ZM304.221 125V116.8H302.321V115.24H304.221V115.06C304.221 113.713 304.561 112.7 305.241 112.02C305.934 111.34 306.994 110.96 308.421 110.88L309.301 110.82L309.441 112.34L308.521 112.4C307.707 112.453 307.121 112.673 306.761 113.06C306.414 113.447 306.241 114.02 306.241 114.78V115.24H308.981V116.8H306.241V125H304.221ZM310.866 127.46L309.986 126.78C310.293 126.447 310.519 126.14 310.666 125.86C310.813 125.58 310.906 125.293 310.946 125H309.846V122.62H312.226V124.24C312.226 124.853 312.126 125.413 311.926 125.92C311.726 126.44 311.373 126.953 310.866 127.46ZM318.861 128.78C317.981 128.78 317.161 128.673 316.401 128.46C315.641 128.26 314.968 127.94 314.381 127.5L315.001 126.06C315.588 126.46 316.188 126.753 316.801 126.94C317.415 127.127 318.055 127.22 318.721 127.22C320.588 127.22 321.521 126.287 321.521 124.42V122.88C321.241 123.467 320.801 123.927 320.201 124.26C319.615 124.593 318.955 124.76 318.221 124.76C317.341 124.76 316.575 124.56 315.921 124.16C315.268 123.747 314.761 123.18 314.401 122.46C314.041 121.727 313.861 120.873 313.861 119.9C313.861 118.94 314.041 118.1 314.401 117.38C314.761 116.647 315.268 116.08 315.921 115.68C316.575 115.267 317.341 115.06 318.221 115.06C318.968 115.06 319.635 115.227 320.221 115.56C320.808 115.893 321.241 116.353 321.521 116.94V115.24H323.481V124.18C323.481 125.713 323.088 126.86 322.301 127.62C321.515 128.393 320.368 128.78 318.861 128.78ZM318.701 123.18C319.555 123.18 320.235 122.887 320.741 122.3C321.248 121.713 321.501 120.913 321.501 119.9C321.501 118.887 321.248 118.093 320.741 117.52C320.235 116.933 319.555 116.64 318.701 116.64C317.848 116.64 317.168 116.933 316.661 117.52C316.155 118.093 315.901 118.887 315.901 119.9C315.901 120.913 316.155 121.713 316.661 122.3C317.168 122.887 317.848 123.18 318.701 123.18ZM327.096 127.46L326.216 126.78C326.523 126.447 326.75 126.14 326.896 125.86C327.043 125.58 327.136 125.293 327.176 125H326.076V122.62H328.456V124.24C328.456 124.853 328.356 125.413 328.156 125.92C327.956 126.44 327.603 126.953 327.096 127.46ZM331.063 125V110.9H333.083V116.76C333.416 116.2 333.863 115.78 334.423 115.5C334.996 115.207 335.636 115.06 336.343 115.06C338.649 115.06 339.803 116.367 339.803 118.98V125H337.783V119.1C337.783 118.26 337.616 117.647 337.283 117.26C336.963 116.873 336.456 116.68 335.763 116.68C334.949 116.68 334.296 116.94 333.803 117.46C333.323 117.967 333.083 118.64 333.083 119.48V125H331.063ZM343.366 127.46L342.486 126.78C342.793 126.447 343.019 126.14 343.166 125.86C343.313 125.58 343.406 125.293 343.446 125H342.346V122.62H344.726V124.24C344.726 124.853 344.626 125.413 344.426 125.92C344.226 126.44 343.873 126.953 343.366 127.46ZM347.152 112.98V110.88H349.512V112.98H347.152ZM347.332 125V115.24H349.352V125H347.332ZM352.975 127.46L352.095 126.78C352.402 126.447 352.629 126.14 352.775 125.86C352.922 125.58 353.015 125.293 353.055 125H351.955V122.62H354.335V124.24C354.335 124.853 354.235 125.413 354.035 125.92C353.835 126.44 353.482 126.953 352.975 127.46ZM357.115 112.98V110.88H359.475V112.98H357.115ZM354.835 128.86L354.695 127.34L355.575 127.26C356.708 127.14 357.275 126.46 357.275 125.22V115.24H359.295V125C359.295 126.227 359.008 127.14 358.435 127.74C357.875 128.353 356.962 128.707 355.695 128.8L354.835 128.86ZM362.917 127.46L362.037 126.78C362.343 126.447 362.57 126.14 362.717 125.86C362.863 125.58 362.957 125.293 362.997 125H361.897V122.62H364.277V124.24C364.277 124.853 364.177 125.413 363.977 125.92C363.777 126.44 363.423 126.953 362.917 127.46ZM366.883 125V110.9H368.903V119.5H368.943L373.183 115.24H375.683L371.003 119.94L376.043 125H373.523L368.943 120.54H368.903V125H366.883ZM378.21 127.46L377.33 126.78C377.636 126.447 377.863 126.14 378.01 125.86C378.156 125.58 378.25 125.293 378.29 125H377.19V122.62H379.57V124.24C379.57 124.853 379.47 125.413 379.27 125.92C379.07 126.44 378.716 126.953 378.21 127.46ZM385.356 125.18C384.289 125.18 383.489 124.88 382.956 124.28C382.436 123.68 382.176 122.8 382.176 121.64V110.9H384.196V121.52C384.196 122.84 384.736 123.5 385.816 123.5C385.976 123.5 386.123 123.493 386.256 123.48C386.403 123.467 386.549 123.44 386.696 123.4L386.656 125.02C386.203 125.127 385.769 125.18 385.356 125.18ZM389.264 127.46L388.384 126.78C388.691 126.447 388.918 126.14 389.064 125.86C389.211 125.58 389.304 125.293 389.344 125H388.244V122.62H390.624V124.24C390.624 124.853 390.524 125.413 390.324 125.92C390.124 126.44 389.771 126.953 389.264 127.46ZM393.271 125V115.24H395.231V116.82C395.524 116.26 395.931 115.827 396.451 115.52C396.971 115.213 397.577 115.06 398.271 115.06C399.764 115.06 400.731 115.713 401.171 117.02C401.477 116.407 401.917 115.927 402.491 115.58C403.064 115.233 403.717 115.06 404.451 115.06C406.637 115.06 407.731 116.367 407.731 118.98V125H405.711V119.08C405.711 118.253 405.564 117.647 405.271 117.26C404.991 116.873 404.524 116.68 403.871 116.68C403.137 116.68 402.557 116.94 402.131 117.46C401.704 117.967 401.491 118.66 401.491 119.54V125H399.471V119.08C399.471 118.253 399.331 117.647 399.051 117.26C398.771 116.873 398.304 116.68 397.651 116.68C396.917 116.68 396.337 116.94 395.911 117.46C395.497 117.967 395.291 118.66 395.291 119.54V125H393.271ZM411.335 127.46L410.455 126.78C410.761 126.447 410.988 126.14 411.135 125.86C411.281 125.58 411.375 125.293 411.415 125H410.315V122.62H412.695V124.24C412.695 124.853 412.595 125.413 412.395 125.92C412.195 126.44 411.841 126.953 411.335 127.46ZM415.301 125V115.24H417.261V116.86C417.594 116.273 418.048 115.827 418.621 115.52C419.208 115.213 419.861 115.06 420.581 115.06C422.888 115.06 424.041 116.367 424.041 118.98V125H422.021V119.1C422.021 118.26 421.854 117.647 421.521 117.26C421.201 116.873 420.694 116.68 420.001 116.68C419.188 116.68 418.534 116.94 418.041 117.46C417.561 117.967 417.321 118.64 417.321 119.48V125H415.301ZM427.604 127.46L426.724 126.78C427.031 126.447 427.258 126.14 427.404 125.86C427.551 125.58 427.644 125.293 427.684 125H426.584V122.62H428.964V124.24C428.964 124.853 428.864 125.413 428.664 125.92C428.464 126.44 428.111 126.953 427.604 127.46ZM435.42 125.18C434.433 125.18 433.58 124.973 432.86 124.56C432.14 124.147 431.58 123.567 431.18 122.82C430.793 122.06 430.6 121.16 430.6 120.12C430.6 119.08 430.793 118.187 431.18 117.44C431.58 116.68 432.14 116.093 432.86 115.68C433.58 115.267 434.433 115.06 435.42 115.06C436.38 115.06 437.22 115.267 437.94 115.68C438.66 116.093 439.22 116.68 439.62 117.44C440.02 118.187 440.22 119.08 440.22 120.12C440.22 121.16 440.02 122.06 439.62 122.82C439.22 123.567 438.66 124.147 437.94 124.56C437.22 124.973 436.38 125.18 435.42 125.18ZM435.42 123.62C436.246 123.62 436.913 123.32 437.42 122.72C437.926 122.12 438.18 121.253 438.18 120.12C438.18 118.987 437.926 118.127 437.42 117.54C436.913 116.94 436.246 116.64 435.42 116.64C434.58 116.64 433.906 116.94 433.4 117.54C432.893 118.127 432.64 118.987 432.64 120.12C432.64 121.253 432.893 122.12 433.4 122.72C433.906 123.32 434.58 123.62 435.42 123.62ZM442.878 127.46L441.998 126.78C442.304 126.447 442.531 126.14 442.678 125.86C442.824 125.58 442.918 125.293 442.958 125H441.858V122.62H444.238V124.24C444.238 124.853 444.138 125.413 443.938 125.92C443.738 126.44 443.384 126.953 442.878 127.46ZM446.844 128.6V115.24H448.824V116.9C449.104 116.34 449.53 115.893 450.104 115.56C450.677 115.227 451.337 115.06 452.084 115.06C452.95 115.06 453.704 115.267 454.344 115.68C454.997 116.093 455.497 116.68 455.844 117.44C456.204 118.187 456.384 119.08 456.384 120.12C456.384 121.16 456.204 122.06 455.844 122.82C455.497 123.58 454.997 124.167 454.344 124.58C453.704 124.98 452.95 125.18 452.084 125.18C451.364 125.18 450.717 125.027 450.144 124.72C449.584 124.4 449.157 123.967 448.864 123.42V128.6H446.844ZM451.584 123.62C452.424 123.62 453.09 123.32 453.584 122.72C454.09 122.12 454.344 121.253 454.344 120.12C454.344 118.987 454.09 118.127 453.584 117.54C453.09 116.94 452.424 116.64 451.584 116.64C450.744 116.64 450.07 116.94 449.564 117.54C449.07 118.127 448.824 118.987 448.824 120.12C448.824 121.253 449.07 122.12 449.564 122.72C450.07 123.32 450.744 123.62 451.584 123.62ZM459.05 127.46L458.17 126.78C458.476 126.447 458.703 126.14 458.85 125.86C458.996 125.58 459.09 125.293 459.13 125H458.03V122.62H460.41V124.24C460.41 124.853 460.31 125.413 460.11 125.92C459.91 126.44 459.556 126.953 459.05 127.46ZM278.54 152.6V147.4C278.26 147.947 277.833 148.38 277.26 148.7C276.687 149.02 276.033 149.18 275.3 149.18C274.433 149.18 273.68 148.98 273.04 148.58C272.4 148.167 271.9 147.58 271.54 146.82C271.18 146.06 271 145.16 271 144.12C271 143.08 271.18 142.187 271.54 141.44C271.9 140.68 272.4 140.093 273.04 139.68C273.693 139.267 274.447 139.06 275.3 139.06C276.047 139.06 276.707 139.233 277.28 139.58C277.867 139.913 278.3 140.367 278.58 140.94V139.24H280.56V152.6H278.54ZM275.82 147.62C276.647 147.62 277.313 147.32 277.82 146.72C278.327 146.12 278.58 145.253 278.58 144.12C278.58 142.987 278.327 142.127 277.82 141.54C277.313 140.94 276.647 140.64 275.82 140.64C274.98 140.64 274.307 140.94 273.8 141.54C273.293 142.127 273.04 142.987 273.04 144.12C273.04 145.253 273.293 146.12 273.8 146.72C274.307 147.32 274.98 147.62 275.82 147.62ZM284.177 151.46L283.297 150.78C283.603 150.447 283.83 150.14 283.977 149.86C284.123 149.58 284.217 149.293 284.257 149H283.157V146.62H285.537V148.24C285.537 148.853 285.437 149.413 285.237 149.92C285.037 150.44 284.683 150.953 284.177 151.46ZM288.143 149V139.24H290.103V140.98C290.609 139.82 291.663 139.173 293.263 139.04L293.923 139L294.063 140.72L292.843 140.84C291.069 141.013 290.183 141.927 290.183 143.58V149H288.143ZM295.934 151.46L295.054 150.78C295.361 150.447 295.588 150.14 295.734 149.86C295.881 149.58 295.974 149.293 296.014 149H294.914V146.62H297.294V148.24C297.294 148.853 297.194 149.413 296.994 149.92C296.794 150.44 296.441 150.953 295.934 151.46ZM303.399 149.18C302.599 149.18 301.852 149.08 301.159 148.88C300.465 148.667 299.885 148.373 299.419 148L299.999 146.64C300.492 146.987 301.032 147.253 301.619 147.44C302.219 147.627 302.819 147.72 303.419 147.72C304.125 147.72 304.659 147.593 305.019 147.34C305.379 147.087 305.559 146.747 305.559 146.32C305.559 145.973 305.439 145.707 305.199 145.52C304.959 145.32 304.599 145.167 304.119 145.06L302.219 144.68C300.539 144.333 299.699 143.467 299.699 142.08C299.699 141.16 300.065 140.427 300.799 139.88C301.532 139.333 302.492 139.06 303.679 139.06C304.359 139.06 305.005 139.16 305.619 139.36C306.245 139.56 306.765 139.86 307.179 140.26L306.599 141.62C306.199 141.273 305.739 141.007 305.219 140.82C304.699 140.633 304.185 140.54 303.679 140.54C302.985 140.54 302.459 140.673 302.099 140.94C301.739 141.193 301.559 141.54 301.559 141.98C301.559 142.647 301.999 143.073 302.879 143.26L304.779 143.64C305.645 143.813 306.299 144.107 306.739 144.52C307.192 144.933 307.419 145.493 307.419 146.2C307.419 147.133 307.052 147.867 306.319 148.4C305.585 148.92 304.612 149.18 303.399 149.18ZM310.348 151.46L309.468 150.78C309.775 150.447 310.002 150.14 310.148 149.86C310.295 149.58 310.388 149.293 310.428 149H309.328V146.62H311.708V148.24C311.708 148.853 311.608 149.413 311.408 149.92C311.208 150.44 310.855 150.953 310.348 151.46ZM317.869 149.18C316.642 149.18 315.729 148.867 315.129 148.24C314.529 147.613 314.229 146.707 314.229 145.52V140.8H312.329V139.24H314.229V136.3H316.249V139.24H319.269V140.8H316.249V145.36C316.249 146.067 316.396 146.6 316.689 146.96C316.996 147.32 317.489 147.5 318.169 147.5C318.382 147.5 318.589 147.48 318.789 147.44C318.989 147.387 319.189 147.327 319.389 147.26L319.709 148.78C319.509 148.9 319.229 148.993 318.869 149.06C318.522 149.14 318.189 149.18 317.869 149.18ZM322.106 151.46L321.226 150.78C321.533 150.447 321.76 150.14 321.906 149.86C322.053 149.58 322.146 149.293 322.186 149H321.086V146.62H323.466V148.24C323.466 148.853 323.366 149.413 323.166 149.92C322.966 150.44 322.613 150.953 322.106 151.46ZM329.455 149.18C327.095 149.18 325.915 147.867 325.915 145.24V139.24H327.935V145.26C327.935 146.047 328.095 146.627 328.415 147C328.735 147.373 329.241 147.56 329.935 147.56C330.695 147.56 331.308 147.307 331.775 146.8C332.255 146.293 332.495 145.613 332.495 144.76V139.24H334.515V149H332.555V147.44C332.235 148.013 331.808 148.447 331.275 148.74C330.741 149.033 330.135 149.18 329.455 149.18ZM338.141 151.46L337.261 150.78C337.568 150.447 337.795 150.14 337.941 149.86C338.088 149.58 338.181 149.293 338.221 149H337.121V146.62H339.501V148.24C339.501 148.853 339.401 149.413 339.201 149.92C339.001 150.44 338.648 150.953 338.141 151.46ZM343.991 149L339.791 139.24H341.971L344.951 146.66L348.011 139.24H350.071L345.811 149H343.991ZM351.325 151.46L350.445 150.78C350.752 150.447 350.978 150.14 351.125 149.86C351.272 149.58 351.365 149.293 351.405 149H350.305V146.62H352.685V148.24C352.685 148.853 352.585 149.413 352.385 149.92C352.185 150.44 351.832 150.953 351.325 151.46ZM356.955 149L353.235 139.24H355.315L357.935 146.64L360.635 139.24H362.195L364.855 146.68L367.515 139.24H369.495L365.775 149H363.935L361.355 142.02L358.795 149H356.955ZM371.032 151.46L370.152 150.78C370.459 150.447 370.685 150.14 370.832 149.86C370.979 149.58 371.072 149.293 371.112 149H370.012V146.62H372.392V148.24C372.392 148.853 372.292 149.413 372.092 149.92C371.892 150.44 371.539 150.953 371.032 151.46ZM373.972 149L378.032 143.96L374.232 139.24H376.592L379.212 142.58L381.832 139.24H384.192L380.372 143.98L384.452 149H382.052L379.192 145.4L376.352 149H373.972ZM387.009 151.46L386.129 150.78C386.435 150.447 386.662 150.14 386.809 149.86C386.955 149.58 387.049 149.293 387.089 149H385.989V146.62H388.369V148.24C388.369 148.853 388.269 149.413 388.069 149.92C387.869 150.44 387.515 150.953 387.009 151.46ZM390.998 152.6L392.738 148.74L388.658 139.24H390.818L393.818 146.66L396.858 139.24H398.938L393.118 152.6H390.998ZM400.192 151.46L399.312 150.78C399.619 150.447 399.846 150.14 399.992 149.86C400.139 149.58 400.232 149.293 400.272 149H399.172V146.62H401.552V148.24C401.552 148.853 401.452 149.413 401.252 149.92C401.052 150.44 400.699 150.953 400.192 151.46ZM403.778 149V147.68L409.098 140.8H403.778V139.24H411.318V140.58L405.998 147.46H411.538V149H403.778ZM414.294 151.46L413.414 150.78C413.72 150.447 413.947 150.14 414.094 149.86C414.24 149.58 414.334 149.293 414.374 149H413.274V146.62H415.654V148.24C415.654 148.853 415.554 149.413 415.354 149.92C415.154 150.44 414.8 150.953 414.294 151.46ZM242.693 173.18C241.053 173.18 239.8 172.56 238.933 171.32C238.08 170.067 237.653 168.273 237.653 165.94C237.653 163.567 238.08 161.773 238.933 160.56C239.8 159.333 241.053 158.72 242.693 158.72C244.347 158.72 245.6 159.333 246.453 160.56C247.307 161.773 247.733 163.56 247.733 165.92C247.733 168.267 247.3 170.067 246.433 171.32C245.58 172.56 244.333 173.18 242.693 173.18ZM242.693 171.46C243.707 171.46 244.46 171.013 244.953 170.12C245.447 169.227 245.693 167.827 245.693 165.92C245.693 164.013 245.447 162.627 244.953 161.76C244.473 160.88 243.72 160.44 242.693 160.44C241.68 160.44 240.927 160.88 240.433 161.76C239.94 162.64 239.693 164.027 239.693 165.92C239.693 167.827 239.94 169.227 240.433 170.12C240.927 171.013 241.68 171.46 242.693 171.46ZM250.886 175.46L250.006 174.78C250.312 174.447 250.539 174.14 250.686 173.86C250.832 173.58 250.926 173.293 250.966 173H249.866V170.62H252.246V172.24C252.246 172.853 252.146 173.413 251.946 173.92C251.746 174.44 251.392 174.953 250.886 175.46ZM255.772 173V171.26H258.972V161.3L256.472 162.86L255.632 161.32L259.572 158.9H261.032V171.26H264.032V173H255.772ZM267.624 175.46L266.744 174.78C267.05 174.447 267.277 174.14 267.424 173.86C267.57 173.58 267.664 173.293 267.704 173H266.604V170.62H268.984V172.24C268.984 172.853 268.884 173.413 268.684 173.92C268.484 174.44 268.13 174.953 267.624 175.46ZM271.87 173V171.46L276.57 166.42C277.223 165.713 277.69 165.073 277.97 164.5C278.263 163.927 278.41 163.347 278.41 162.76C278.41 161.24 277.517 160.48 275.73 160.48C274.37 160.48 273.15 160.993 272.07 162.02L271.33 160.44C271.863 159.92 272.543 159.507 273.37 159.2C274.197 158.88 275.057 158.72 275.95 158.72C277.403 158.72 278.517 159.053 279.29 159.72C280.077 160.387 280.47 161.34 280.47 162.58C280.47 163.42 280.263 164.24 279.85 165.04C279.45 165.84 278.817 166.693 277.95 167.6L274.47 171.26H281.03V173H271.87ZM284.362 175.46L283.482 174.78C283.789 174.447 284.015 174.14 284.162 173.86C284.309 173.58 284.402 173.293 284.442 173H283.342V170.62H285.722V172.24C285.722 172.853 285.622 173.413 285.422 173.92C285.222 174.44 284.869 174.953 284.362 175.46ZM292.688 173.18C291.742 173.18 290.842 173.04 289.988 172.76C289.135 172.467 288.422 172.06 287.848 171.54L288.568 169.94C289.195 170.447 289.842 170.82 290.508 171.06C291.175 171.3 291.882 171.42 292.628 171.42C293.588 171.42 294.315 171.213 294.808 170.8C295.315 170.387 295.568 169.793 295.568 169.02C295.568 168.247 295.315 167.673 294.808 167.3C294.315 166.927 293.595 166.74 292.648 166.74H290.468V165H292.448C293.288 165 293.948 164.787 294.428 164.36C294.922 163.933 295.168 163.347 295.168 162.6C295.168 161.92 294.942 161.4 294.488 161.04C294.035 160.667 293.388 160.48 292.548 160.48C291.122 160.48 289.875 160.993 288.808 162.02L288.088 160.44C288.635 159.893 289.315 159.473 290.128 159.18C290.955 158.873 291.815 158.72 292.708 158.72C294.122 158.72 295.222 159.047 296.008 159.7C296.795 160.34 297.188 161.233 297.188 162.38C297.188 163.153 296.988 163.833 296.588 164.42C296.202 165.007 295.662 165.433 294.968 165.7C295.808 165.913 296.455 166.327 296.908 166.94C297.362 167.54 297.588 168.28 297.588 169.16C297.588 170.4 297.148 171.38 296.268 172.1C295.402 172.82 294.208 173.18 292.688 173.18ZM301.1 175.46L300.22 174.78C300.527 174.447 300.754 174.14 300.9 173.86C301.047 173.58 301.14 173.293 301.18 173H300.08V170.62H302.46V172.24C302.46 172.853 302.36 173.413 302.16 173.92C301.96 174.44 301.607 174.953 301.1 175.46ZM310.926 173V170.14H304.586V168.6L311.286 158.9H312.986V168.4H315.046V170.14H312.986V173H310.926ZM310.926 168.4V162.14L306.646 168.4H310.926ZM317.839 175.46L316.959 174.78C317.265 174.447 317.492 174.14 317.639 173.86C317.785 173.58 317.879 173.293 317.919 173H316.819V170.62H319.199V172.24C319.199 172.853 319.099 173.413 318.899 173.92C318.699 174.44 318.345 174.953 317.839 175.46ZM326.605 173.18C325.698 173.18 324.818 173.04 323.965 172.76C323.125 172.467 322.425 172.06 321.865 171.54L322.565 169.94C323.791 170.927 325.125 171.42 326.565 171.42C327.485 171.42 328.205 171.173 328.725 170.68C329.245 170.173 329.505 169.513 329.505 168.7C329.505 167.86 329.258 167.173 328.765 166.64C328.271 166.107 327.585 165.84 326.705 165.84C325.465 165.84 324.471 166.353 323.725 167.38H322.285V158.9H330.685V160.64H324.305V165.1C325.051 164.447 325.998 164.12 327.145 164.12C328.038 164.12 328.811 164.307 329.465 164.68C330.118 165.053 330.625 165.58 330.985 166.26C331.345 166.927 331.525 167.707 331.525 168.6C331.525 169.507 331.325 170.307 330.925 171C330.525 171.68 329.958 172.213 329.225 172.6C328.491 172.987 327.618 173.18 326.605 173.18ZM334.577 175.46L333.697 174.78C334.004 174.447 334.23 174.14 334.377 173.86C334.524 173.58 334.617 173.293 334.657 173H333.557V170.62H335.937V172.24C335.937 172.853 335.837 173.413 335.637 173.92C335.437 174.44 335.084 174.953 334.577 175.46ZM343.623 173.18C341.916 173.18 340.596 172.573 339.663 171.36C338.743 170.147 338.283 168.447 338.283 166.26C338.283 163.847 338.803 161.987 339.843 160.68C340.883 159.373 342.323 158.72 344.163 158.72C344.883 158.72 345.61 158.867 346.343 159.16C347.076 159.44 347.69 159.84 348.183 160.36L347.463 161.92C346.983 161.44 346.45 161.08 345.863 160.84C345.29 160.6 344.71 160.48 344.123 160.48C342.883 160.48 341.93 160.933 341.263 161.84C340.61 162.733 340.283 164.073 340.283 165.86V166.66C340.55 165.847 341.01 165.213 341.663 164.76C342.33 164.293 343.096 164.06 343.963 164.06C344.79 164.06 345.516 164.253 346.143 164.64C346.783 165.027 347.283 165.56 347.643 166.24C348.003 166.907 348.183 167.673 348.183 168.54C348.183 169.447 347.99 170.253 347.603 170.96C347.216 171.653 346.676 172.2 345.983 172.6C345.303 172.987 344.516 173.18 343.623 173.18ZM343.503 171.5C344.316 171.5 344.976 171.233 345.483 170.7C345.99 170.167 346.243 169.473 346.243 168.62C346.243 167.767 345.99 167.073 345.483 166.54C344.976 166.007 344.316 165.74 343.503 165.74C342.69 165.74 342.03 166.007 341.523 166.54C341.016 167.073 340.763 167.767 340.763 168.62C340.763 169.473 341.016 170.167 341.523 170.7C342.03 171.233 342.69 171.5 343.503 171.5ZM351.315 175.46L350.435 174.78C350.742 174.447 350.969 174.14 351.115 173.86C351.262 173.58 351.355 173.293 351.395 173H350.295V170.62H352.675V172.24C352.675 172.853 352.575 173.413 352.375 173.92C352.175 174.44 351.822 174.953 351.315 175.46ZM355.861 173L362.321 160.64H355.101V158.9H364.641V160.44L358.141 173H355.861ZM368.054 175.46L367.174 174.78C367.48 174.447 367.707 174.14 367.854 173.86C368 173.58 368.094 173.293 368.134 173H367.034V170.62H369.414V172.24C369.414 172.853 369.314 173.413 369.114 173.92C368.914 174.44 368.56 174.953 368.054 175.46ZM376.6 173.18C374.986 173.18 373.726 172.833 372.82 172.14C371.926 171.447 371.48 170.48 371.48 169.24C371.48 168.373 371.706 167.64 372.16 167.04C372.626 166.427 373.233 166.007 373.98 165.78C373.313 165.5 372.786 165.073 372.4 164.5C372.013 163.913 371.82 163.24 371.82 162.48C371.82 161.307 372.253 160.387 373.12 159.72C373.986 159.053 375.146 158.72 376.6 158.72C378.066 158.72 379.233 159.053 380.1 159.72C380.966 160.387 381.4 161.307 381.4 162.48C381.4 163.24 381.2 163.913 380.8 164.5C380.413 165.087 379.886 165.513 379.22 165.78C379.98 166.007 380.586 166.427 381.04 167.04C381.493 167.64 381.72 168.373 381.72 169.24C381.72 170.48 381.266 171.447 380.36 172.14C379.466 172.833 378.213 173.18 376.6 173.18ZM376.6 165.04C377.493 165.04 378.186 164.833 378.68 164.42C379.186 163.993 379.44 163.413 379.44 162.68C379.44 161.96 379.186 161.393 378.68 160.98C378.186 160.567 377.493 160.36 376.6 160.36C375.706 160.36 375.013 160.567 374.52 160.98C374.026 161.393 373.78 161.96 373.78 162.68C373.78 163.413 374.026 163.993 374.52 164.42C375.013 164.833 375.706 165.04 376.6 165.04ZM376.6 171.54C378.72 171.54 379.78 170.727 379.78 169.1C379.78 167.487 378.72 166.68 376.6 166.68C375.56 166.68 374.766 166.88 374.22 167.28C373.686 167.68 373.42 168.287 373.42 169.1C373.42 170.727 374.48 171.54 376.6 171.54ZM384.792 175.46L383.912 174.78C384.218 174.447 384.445 174.14 384.592 173.86C384.738 173.58 384.832 173.293 384.872 173H383.772V170.62H386.152V172.24C386.152 172.853 386.052 173.413 385.852 173.92C385.652 174.44 385.298 174.953 384.792 175.46ZM392.318 173.18C391.585 173.18 390.851 173.033 390.118 172.74C389.398 172.447 388.785 172.047 388.278 171.54L388.998 169.96C389.491 170.44 390.025 170.807 390.598 171.06C391.171 171.3 391.751 171.42 392.338 171.42C393.591 171.42 394.545 170.973 395.198 170.08C395.865 169.173 396.198 167.827 396.198 166.04V165.22C395.931 166.033 395.465 166.673 394.798 167.14C394.145 167.607 393.378 167.84 392.498 167.84C391.685 167.84 390.958 167.647 390.318 167.26C389.678 166.873 389.178 166.347 388.818 165.68C388.458 165 388.278 164.227 388.278 163.36C388.278 162.453 388.471 161.653 388.858 160.96C389.245 160.253 389.778 159.707 390.458 159.32C391.151 158.92 391.945 158.72 392.838 158.72C394.545 158.72 395.858 159.327 396.778 160.54C397.711 161.753 398.178 163.453 398.178 165.64C398.178 168.053 397.658 169.913 396.618 171.22C395.591 172.527 394.158 173.18 392.318 173.18ZM392.978 166.14C393.791 166.14 394.451 165.88 394.958 165.36C395.465 164.827 395.718 164.133 395.718 163.28C395.718 162.427 395.465 161.733 394.958 161.2C394.451 160.653 393.791 160.38 392.978 160.38C392.165 160.38 391.505 160.653 390.998 161.2C390.491 161.733 390.238 162.427 390.238 163.28C390.238 164.133 390.491 164.827 390.998 165.36C391.505 165.88 392.165 166.14 392.978 166.14ZM401.53 175.46L400.65 174.78C400.957 174.447 401.183 174.14 401.33 173.86C401.477 173.58 401.57 173.293 401.61 173H400.51V170.62H402.89V172.24C402.89 172.853 402.79 173.413 402.59 173.92C402.39 174.44 402.037 174.953 401.53 175.46ZM409.936 173.18C408.483 173.18 407.343 172.847 406.516 172.18C405.69 171.513 405.276 170.627 405.276 169.52C405.276 168.613 405.523 167.827 406.016 167.16C406.51 166.493 407.23 165.867 408.176 165.28L408.416 165.14C407.843 164.54 407.436 163.993 407.196 163.5C406.97 162.993 406.856 162.473 406.856 161.94C406.856 160.98 407.19 160.207 407.856 159.62C408.523 159.02 409.41 158.72 410.516 158.72C411.516 158.72 412.323 158.987 412.936 159.52C413.55 160.053 413.856 160.773 413.856 161.68C413.856 162.373 413.65 163.02 413.236 163.62C412.836 164.207 412.136 164.813 411.136 165.44L414.156 168.76C414.423 168.213 414.636 167.587 414.796 166.88C414.956 166.16 415.056 165.413 415.096 164.64H416.796C416.77 165.667 416.63 166.64 416.376 167.56C416.123 168.467 415.783 169.273 415.356 169.98L418.256 173H415.796L414.276 171.34C413.716 171.927 413.063 172.38 412.316 172.7C411.57 173.02 410.776 173.18 409.936 173.18ZM410.516 160.2C409.983 160.2 409.55 160.36 409.216 160.68C408.896 160.987 408.736 161.393 408.736 161.9C408.736 162.287 408.823 162.64 408.996 162.96C409.183 163.28 409.523 163.72 410.016 164.28C410.79 163.8 411.336 163.373 411.656 163C411.976 162.627 412.136 162.213 412.136 161.76C412.136 161.267 411.983 160.887 411.676 160.62C411.383 160.34 410.996 160.2 410.516 160.2ZM410.036 171.56C411.29 171.56 412.323 171.1 413.136 170.18L409.516 166.32L409.396 166.4C408.623 166.893 408.076 167.36 407.756 167.8C407.436 168.227 407.276 168.747 407.276 169.36C407.276 170.053 407.51 170.593 407.976 170.98C408.456 171.367 409.143 171.56 410.036 171.56ZM420.436 175.46L419.556 174.78C419.863 174.447 420.09 174.14 420.236 173.86C420.383 173.58 420.476 173.293 420.516 173H419.416V170.62H421.796V172.24C421.796 172.853 421.696 173.413 421.496 173.92C421.296 174.44 420.943 174.953 420.436 175.46ZM425.177 169.1V168.4C425.177 167.76 425.297 167.16 425.537 166.6C425.79 166.027 426.217 165.393 426.817 164.7C427.284 164.167 427.61 163.713 427.797 163.34C427.984 162.953 428.077 162.547 428.077 162.12C428.077 161.613 427.897 161.213 427.537 160.92C427.177 160.627 426.67 160.48 426.017 160.48C424.644 160.48 423.404 160.993 422.297 162.02L421.577 160.44C422.11 159.92 422.784 159.507 423.597 159.2C424.424 158.88 425.27 158.72 426.137 158.72C427.337 158.72 428.304 159.02 429.037 159.62C429.77 160.207 430.137 160.98 430.137 161.94C430.137 162.567 429.997 163.153 429.717 163.7C429.45 164.233 428.977 164.833 428.297 165.5C427.67 166.127 427.23 166.68 426.977 167.16C426.724 167.627 426.57 168.093 426.517 168.56L426.437 169.1H425.177ZM424.617 173V170.62H426.997V173H424.617ZM431.022 175.46L430.142 174.78C430.449 174.447 430.676 174.14 430.822 173.86C430.969 173.58 431.062 173.293 431.102 173H430.002V170.62H432.382V172.24C432.382 172.853 432.282 173.413 432.082 173.92C431.882 174.44 431.529 174.953 431.022 175.46ZM438.948 175.3V173.1C438.055 173.047 437.215 172.887 436.428 172.62C435.642 172.34 434.955 171.953 434.368 171.46L435.048 169.82C435.688 170.327 436.368 170.707 437.088 170.96C437.822 171.213 438.648 171.34 439.568 171.34C440.622 171.34 441.402 171.14 441.908 170.74C442.428 170.34 442.688 169.827 442.688 169.2C442.688 168.667 442.508 168.247 442.148 167.94C441.788 167.62 441.182 167.367 440.328 167.18L438.268 166.74C437.068 166.473 436.168 166.04 435.568 165.44C434.968 164.827 434.668 164.013 434.668 163C434.668 162.24 434.842 161.567 435.188 160.98C435.548 160.393 436.048 159.913 436.688 159.54C437.328 159.167 438.082 158.933 438.948 158.84V156.6H440.588V158.84C441.282 158.907 441.955 159.08 442.608 159.36C443.275 159.627 443.848 160 444.328 160.48L443.668 162.06C443.148 161.553 442.562 161.18 441.908 160.94C441.255 160.687 440.535 160.56 439.748 160.56C438.828 160.56 438.088 160.78 437.528 161.22C436.982 161.66 436.708 162.233 436.708 162.94C436.708 163.487 436.882 163.92 437.228 164.24C437.575 164.56 438.128 164.807 438.888 164.98L440.948 165.42C442.228 165.687 443.182 166.12 443.808 166.72C444.435 167.307 444.748 168.087 444.748 169.06C444.748 170.167 444.362 171.073 443.588 171.78C442.815 172.473 441.815 172.893 440.588 173.04V175.3H438.948ZM446.741 173V170.62H449.121V173H446.741Z" fill="#5D5353"/>
</g>
<defs>
<filter id="filter0_d_403_7086" x="0" y="0" width="550" height="282" filterUnits="userSpaceOnUse" color-interpolation-filters="sRGB">
<feFlood flood-opacity="0" result="BackgroundImageFix"/>
<feColorMatrix in="SourceAlpha" type="matrix" values="0 0 0 0 0 0 0 0 0 0 0 0 0 0 0 0 0 0 127 0" result="hardAlpha"/>
<feMorphology radius="4" operator="erode" in="SourceAlpha" result="effect1_dropShadow_403_7086"/>
<feOffset dy="16"/>
<feGaussianBlur stdDeviation="22"/>
<feComposite in2="hardAlpha" operator="out"/>
<feColorMatrix type="matrix" values="0 0 0 0 0 0 0 0 0 0 0 0 0 0 0 0 0 0 0.07 0"/>
<feBlend mode="normal" in2="BackgroundImageFix" result="effect1_dropShadow_403_7086"/>
<feBlend mode="normal" in="SourceGraphic" in2="effect1_dropShadow_403_7086" result="shape"/>
</filter>
</defs>
</svg>
