<svg width="20" height="16" viewBox="0 0 20 16" xmlns="http://www.w3.org/2000/svg">
<path d="M19.0502 0.175781H1.05017C0.851259 0.175781 0.660493 0.254799 0.519841 0.395451C0.379188 0.536104 0.300171 0.726869 0.300171 0.925781V13.6758C0.300171 14.0736 0.458206 14.4551 0.739511 14.7364C1.02082 15.0177 1.40235 15.1758 1.80017 15.1758H18.3002C18.698 15.1758 19.0795 15.0177 19.3608 14.7364C19.6421 14.4551 19.8002 14.0736 19.8002 13.6758V0.925781C19.8002 0.726869 19.7212 0.536104 19.5805 0.395451C19.4398 0.254799 19.2491 0.175781 19.0502 0.175781ZM18.3002 13.6758H1.80017V2.63109L9.54298 9.72891C9.68135 9.85592 9.86234 9.9264 10.0502 9.9264C10.238 9.9264 10.419 9.85592 10.5574 9.72891L18.3002 2.63109V13.6758Z" fill="#333333"/>
</svg>
