<svg width="472" height="412" viewBox="0 0 472 412" fill="none" xmlns="http://www.w3.org/2000/svg">
<path d="M313.395 152.182L258.602 231.693L472 369.119L327.937 202.031L313.395 152.182Z" fill="url(#paint0_linear_463_5208)"/>
<path d="M313.395 152.182L472 369.119L327.937 202.031L313.395 152.182Z" fill="url(#paint1_linear_463_5208)"/>
<path d="M381.331 310.734L393.996 278.646L472 369.119L381.331 310.734Z" fill="url(#paint2_linear_463_5208)"/>
<path d="M199.844 90.6924L214.706 129.379L189.687 160.639L174.825 121.952L199.844 90.6924Z" fill="url(#paint3_linear_463_5208)"/>
<path d="M189.687 160.639L149.946 154.469L135.354 116.51L135.074 115.792L174.825 121.951L189.687 160.639Z" fill="url(#paint4_linear_463_5208)"/>
<path d="M199.834 90.6922L174.825 121.951L135.074 115.791L135.553 115.172H135.573L160.093 84.5322L199.834 90.6922Z" fill="url(#paint5_linear_463_5208)"/>
<path d="M463.8 268.023L455.58 286.843L435.874 289.179L444.084 270.36L463.8 268.023Z" fill="#3C3C3B"/>
<path d="M444.084 270.36L435.874 289.179L423.989 273.175L432.199 254.356L444.084 270.36Z" fill="#575756"/>
<path d="M463.8 268.024L444.084 270.36L432.199 254.356L451.915 252.02L463.8 268.024Z" fill="url(#paint6_linear_463_5208)"/>
<path d="M199.005 280.394L293.23 193.615L356.772 270.6L422.351 206.843L353.705 380.701L199.005 280.394Z" fill="url(#paint7_linear_463_5208)"/>
<path d="M422.351 206.843L327.368 234.978L356.772 270.6L422.351 206.843Z" fill="url(#paint8_linear_463_5208)"/>
<path d="M293.539 0L301.47 16.9125L443.894 116.141L462.512 117.729L293.539 0Z" fill="url(#paint9_linear_463_5208)"/>
<path d="M293.539 0L301.47 16.9125L443.894 116.141L462.512 117.729L293.539 0Z" fill="url(#paint10_linear_463_5208)"/>
<path d="M276.031 205.136L286.718 189.811L301.47 16.9125L293.539 0L276.031 205.136Z" fill="url(#paint11_linear_463_5208)"/>
<path d="M462.512 117.729L443.895 116.141L286.718 189.811L276.031 205.136L462.512 117.729Z" fill="url(#paint12_linear_463_5208)"/>
<path d="M301.47 16.9126L443.895 116.141L425.277 114.554L309.41 33.8251L301.47 16.9126Z" fill="url(#paint13_linear_463_5208)"/>
<path d="M286.718 189.811L301.47 16.9126L309.41 33.8251L297.405 174.486L286.718 189.811Z" fill="url(#paint14_linear_463_5208)"/>
<path d="M425.277 114.554L443.895 116.142L286.718 189.812L297.405 174.487L425.277 114.554Z" fill="url(#paint15_linear_463_5208)"/>
<path d="M87.083 235.776L83.1778 244.812L93.7448 335.634L99.6176 343.531L87.083 235.776Z" fill="url(#paint16_linear_463_5208)"/>
<path d="M0 300.501L9.77798 299.363L83.1778 244.812L87.083 235.776L0 300.501Z" fill="url(#paint17_linear_463_5208)"/>
<path d="M99.6176 343.531L93.7448 335.634L9.77798 299.363L0 300.501L99.6176 343.531Z" fill="url(#paint18_linear_463_5208)"/>
<path d="M83.1778 244.812L93.7448 335.634L87.862 327.737L79.2726 253.847L83.1778 244.812Z" fill="url(#paint19_linear_463_5208)"/>
<path d="M9.77795 299.363L83.1777 244.812L79.2725 253.847L19.5559 298.225L9.77795 299.363Z" fill="url(#paint20_linear_463_5208)"/>
<path d="M87.862 327.737L93.7448 335.634L9.77795 299.363L19.5559 298.225L87.862 327.737Z" fill="url(#paint21_linear_463_5208)"/>
<path d="M263.187 317.903L184.164 411.99L63.502 287.902H63.492L62.3334 286.704L218.382 349.102H218.402L263.187 317.903Z" fill="url(#paint22_linear_463_5208)"/>
<path d="M263.187 317.903L218.402 349.102H218.382L62.3334 286.704L65.3597 287.183L263.187 317.903Z" fill="url(#paint23_linear_463_5208)"/>
<path d="M184.164 412L218.392 349.092L263.197 317.893L184.164 412Z" fill="url(#paint24_linear_463_5208)"/>
<path d="M218.641 348.463L218.402 349.102H218.382L218.142 349.721L63.502 287.902H63.492L62.3334 286.704L65.3597 287.183L218.641 348.463Z" fill="url(#paint25_linear_463_5208)"/>
<path d="M113.101 265.019L108.227 114.074L223.116 259.867L142.845 303.916L152.473 247.068L113.101 265.019Z" fill="url(#paint26_linear_463_5208)"/>
<path d="M113.101 265.019L146.14 284.467L152.473 247.068L113.101 265.019Z" fill="url(#paint27_linear_463_5208)"/>
<path d="M108.227 114.074L178.481 203.229L132.787 210.567L108.227 114.074Z" fill="url(#paint28_linear_463_5208)"/>
<path d="M113.101 265.019L152.473 247.068L150.445 259.068L123.628 271.219L113.101 265.019Z" fill="url(#paint29_linear_463_5208)"/>
<path d="M173.307 204.058L147.798 277.169L152.473 247.068L113.101 265.018L132.787 210.567L173.307 204.058Z" fill="url(#paint30_linear_463_5208)"/>
<path d="M403.904 3.80371L397.232 191.728L397.202 192.407L276.031 187.635L122.3 350.4L122.839 348.823L213.458 88.8754L213.747 88.0467L214.706 88.3263L343.558 126.344L403.904 3.80371Z" fill="url(#paint31_linear_463_5208)"/>
<path d="M403.904 3.80371L343.558 126.344L262.827 102.533L402.755 4.61239V4.60241L403.904 3.80371Z" fill="url(#paint32_linear_463_5208)"/>
<path d="M213.737 88.0469L276.031 187.625L122.3 350.39L213.737 88.0469Z" fill="url(#paint33_linear_463_5208)"/>
<path d="M397.202 192.407L396.103 193.046H396.093L124.327 349.232L124.307 349.242L122.3 350.4L276.031 187.635L397.202 192.407Z" fill="url(#paint34_linear_463_5208)"/>
<path d="M397.232 191.728L397.202 192.407L396.103 193.046H396.093L276.31 188.314L124.327 349.232L124.307 349.242L122.3 350.4L122.839 348.823L275.182 187.535L213.458 88.8755L213.747 88.0469L214.706 88.3264L276.42 186.966L397.232 191.728Z" fill="url(#paint35_radial_463_5208)"/>
<path d="M403.904 3.80371L403.854 5.45103V5.471L344.037 126.924L343.558 126.344L342.899 126.155L402.755 4.61239V4.60241L403.904 3.80371Z" fill="url(#paint36_linear_463_5208)"/>
<path d="M276.42 186.966L214.706 88.3267L343.558 126.345L397.232 191.729L276.42 186.966Z" fill="url(#paint37_linear_463_5208)"/>
<path d="M91.3977 228.349C106.788 228.349 119.263 215.752 119.263 200.214C119.263 184.676 106.788 172.08 91.3977 172.08C76.0079 172.08 63.532 184.676 63.532 200.214C63.532 215.752 76.0079 228.349 91.3977 228.349Z" fill="url(#paint38_radial_463_5208)"/>
<path d="M323.273 373.373C330.234 373.373 335.877 367.678 335.877 360.653C335.877 353.629 330.234 347.934 323.273 347.934C316.311 347.934 310.668 353.629 310.668 360.653C310.668 367.678 316.311 373.373 323.273 373.373Z" fill="url(#paint39_radial_463_5208)"/>
<path d="M174.925 121.292L174.825 121.951L135.074 115.791L135.553 115.172H135.573L174.925 121.292Z" fill="url(#paint40_linear_463_5208)"/>
<defs>
<linearGradient id="paint0_linear_463_5208" x1="287.267" y1="192.886" x2="481.333" y2="338.174" gradientUnits="userSpaceOnUse">
<stop offset="0.22"/>
<stop offset="0.52" stop-color="#6A6A6A"/>
<stop offset="0.69" stop-color="#818181"/>
<stop offset="1" stop-color="#B5B5B5"/>
</linearGradient>
<linearGradient id="paint1_linear_463_5208" x1="336.526" y1="195.701" x2="471.898" y2="354.556" gradientUnits="userSpaceOnUse">
<stop offset="0.03" stop-color="#3C3C3B"/>
<stop offset="0.35" stop-color="#575756"/>
<stop offset="0.66" stop-color="#6E6D6D"/>
<stop offset="0.68" stop-color="#706F6F"/>
<stop offset="1" stop-color="#878787"/>
</linearGradient>
<linearGradient id="paint2_linear_463_5208" x1="386.365" y1="303.476" x2="484.462" y2="346.435" gradientUnits="userSpaceOnUse">
<stop stop-color="#202020"/>
<stop offset="0.04" stop-color="#383837"/>
<stop offset="0.08" stop-color="#494948"/>
<stop offset="0.12" stop-color="#535352"/>
<stop offset="0.17" stop-color="#575756"/>
</linearGradient>
<linearGradient id="paint3_linear_463_5208" x1="180.049" y1="115.362" x2="203.783" y2="131.994" gradientUnits="userSpaceOnUse">
<stop stop-color="#575756"/>
<stop offset="0.14" stop-color="#4A4A49"/>
<stop offset="0.71" stop-color="#181818"/>
<stop offset="0.99" stop-color="#050505"/>
</linearGradient>
<linearGradient id="paint4_linear_463_5208" x1="189.687" y1="161.238" x2="135.971" y2="115.9" gradientUnits="userSpaceOnUse">
<stop stop-color="#0A0A0A"/>
<stop offset="0.3" stop-color="#1D1D1D"/>
<stop offset="0.91" stop-color="#4F4F4E"/>
<stop offset="1" stop-color="#575756"/>
</linearGradient>
<linearGradient id="paint5_linear_463_5208" x1="135.074" y1="103.242" x2="199.834" y2="103.242" gradientUnits="userSpaceOnUse">
<stop stop-color="#706F6F"/>
<stop offset="0.49" stop-color="#575756"/>
<stop offset="0.62" stop-color="#4F4F4E"/>
<stop offset="0.99" stop-color="#3C3C3B"/>
</linearGradient>
<linearGradient id="paint6_linear_463_5208" x1="437.382" y1="256.243" x2="463.407" y2="268.381" gradientUnits="userSpaceOnUse">
<stop stop-color="#706F6F"/>
<stop offset="0.53" stop-color="#575756"/>
<stop offset="0.58" stop-color="#535352"/>
<stop offset="1" stop-color="#3C3C3B"/>
</linearGradient>
<linearGradient id="paint7_linear_463_5208" x1="279.202" y1="208.654" x2="381.473" y2="322.613" gradientUnits="userSpaceOnUse">
<stop stop-color="#1D1D1B"/>
<stop offset="0.28" stop-color="#3C3C3B"/>
<stop offset="0.7" stop-color="#4E4E4D"/>
<stop offset="1" stop-color="#575756"/>
</linearGradient>
<linearGradient id="paint8_linear_463_5208" x1="332.858" y1="255.424" x2="427.786" y2="227.555" gradientUnits="userSpaceOnUse">
<stop stop-color="#0D0D0D"/>
<stop offset="0.22" stop-color="#575756"/>
<stop offset="0.56" stop-color="#666565"/>
<stop offset="0.89" stop-color="#706F6F"/>
</linearGradient>
<linearGradient id="paint9_linear_463_5208" x1="293.539" y1="58.8643" x2="462.512" y2="58.8643" gradientUnits="userSpaceOnUse">
<stop stop-color="#C1C1C1"/>
<stop offset="0.47" stop-color="#D5D5D5"/>
<stop offset="1" stop-color="#DEDEDE"/>
</linearGradient>
<linearGradient id="paint10_linear_463_5208" x1="290.793" y1="3.29464" x2="459.831" y2="122.055" gradientUnits="userSpaceOnUse">
<stop stop-color="#575756"/>
<stop offset="0.04" stop-color="#535352"/>
<stop offset="0.24" stop-color="#454544"/>
<stop offset="0.49" stop-color="#3E3E3D"/>
<stop offset="1" stop-color="#3C3C3B"/>
</linearGradient>
<linearGradient id="paint11_linear_463_5208" x1="296.136" y1="16.3734" x2="283.272" y2="181.436" gradientUnits="userSpaceOnUse">
<stop stop-color="#343333"/>
<stop offset="0.54" stop-color="#444443"/>
<stop offset="1" stop-color="#575756"/>
</linearGradient>
<linearGradient id="paint12_linear_463_5208" x1="285.05" y1="196.75" x2="444.86" y2="119.995" gradientUnits="userSpaceOnUse">
<stop offset="0.68" stop-color="#3C3C3B"/>
<stop offset="0.86" stop-color="#4E4E4D"/>
<stop offset="1" stop-color="#575756"/>
</linearGradient>
<linearGradient id="paint13_linear_463_5208" x1="302.099" y1="22.9328" x2="443.129" y2="121.465" gradientUnits="userSpaceOnUse">
<stop stop-color="#343333"/>
<stop offset="0.54" stop-color="#444443"/>
<stop offset="1" stop-color="#575756"/>
</linearGradient>
<linearGradient id="paint14_linear_463_5208" x1="307.312" y1="28.8532" x2="288.6" y2="187.717" gradientUnits="userSpaceOnUse">
<stop stop-color="#3C3C3B"/>
<stop offset="0.33" stop-color="#3A3A39"/>
<stop offset="0.45" stop-color="#333332"/>
<stop offset="0.53" stop-color="#282826"/>
<stop offset="0.58" stop-color="#1D1D1B"/>
<stop offset="1" stop-color="#706F6F"/>
</linearGradient>
<linearGradient id="paint15_linear_463_5208" x1="299.322" y1="180.118" x2="435.204" y2="113.753" gradientUnits="userSpaceOnUse">
<stop offset="0.69" stop-color="#3C3C3B"/>
<stop offset="0.73" stop-color="#474746"/>
<stop offset="0.82" stop-color="#5E5D5D"/>
<stop offset="0.92" stop-color="#6B6A6A"/>
<stop offset="1" stop-color="#706F6F"/>
</linearGradient>
<linearGradient id="paint16_linear_463_5208" x1="63.8736" y1="256.379" x2="122.852" y2="323.046" gradientUnits="userSpaceOnUse">
<stop stop-color="#706F6F"/>
<stop offset="0.03" stop-color="#6D6C6C"/>
<stop offset="0.41" stop-color="#525251"/>
<stop offset="0.75" stop-color="#414140"/>
<stop offset="1" stop-color="#3C3C3B"/>
</linearGradient>
<linearGradient id="paint17_linear_463_5208" x1="81.5488" y1="242.569" x2="11.9229" y2="295.157" gradientUnits="userSpaceOnUse">
<stop stop-color="#3C3C3B"/>
<stop offset="0.39" stop-color="#4D4C4C"/>
<stop offset="1" stop-color="#706F6F"/>
</linearGradient>
<linearGradient id="paint18_linear_463_5208" x1="17.5931" y1="285.017" x2="82.6789" y2="358.586" gradientUnits="userSpaceOnUse">
<stop stop-color="#3C3C3B"/>
<stop offset="0.68" stop-color="#4D4D4C"/>
<stop offset="1" stop-color="#575756"/>
</linearGradient>
<linearGradient id="paint19_linear_463_5208" x1="81.0461" y1="247.213" x2="91.4233" y2="337.232" gradientUnits="userSpaceOnUse">
<stop stop-color="#3C3C3B"/>
<stop offset="0.47" stop-color="#575756"/>
<stop offset="1" stop-color="#706F6F"/>
</linearGradient>
<linearGradient id="paint20_linear_463_5208" x1="80.5254" y1="251.34" x2="11.3051" y2="299.447" gradientUnits="userSpaceOnUse">
<stop stop-color="#706F6F"/>
<stop offset="0.2" stop-color="#636262"/>
<stop offset="0.71" stop-color="#464645"/>
<stop offset="1" stop-color="#3C3C3B"/>
</linearGradient>
<linearGradient id="paint21_linear_463_5208" x1="18.0255" y1="301.006" x2="91.6626" y2="331.467" gradientUnits="userSpaceOnUse">
<stop stop-color="#9D9D9C"/>
<stop offset="0.53" stop-color="#706F6F"/>
<stop offset="1" stop-color="#3C3C3B"/>
</linearGradient>
<linearGradient id="paint22_linear_463_5208" x1="108.547" y1="247.008" x2="224.397" y2="365.781" gradientUnits="userSpaceOnUse">
<stop stop-color="#706F6F"/>
<stop offset="0.31" stop-color="#575756"/>
<stop offset="0.7" stop-color="#3C3C3B"/>
<stop offset="0.99" stop-color="#111111"/>
</linearGradient>
<linearGradient id="paint23_linear_463_5208" x1="62.3334" y1="317.903" x2="263.187" y2="317.903" gradientUnits="userSpaceOnUse">
<stop stop-color="#706F6F"/>
<stop offset="0.56" stop-color="#575756"/>
<stop offset="1" stop-color="#3C3C3B"/>
</linearGradient>
<linearGradient id="paint24_linear_463_5208" x1="236.919" y1="339.198" x2="189.713" y2="408.783" gradientUnits="userSpaceOnUse">
<stop stop-color="#575756"/>
<stop offset="0.02" stop-color="#565655"/>
<stop offset="0.6" stop-color="#424241"/>
<stop offset="1" stop-color="#3C3C3B"/>
</linearGradient>
<linearGradient id="paint25_linear_463_5208" x1="62.3334" y1="318.212" x2="218.641" y2="318.212" gradientUnits="userSpaceOnUse">
<stop stop-color="#B2B2B2"/>
<stop offset="1" stop-color="#727272"/>
</linearGradient>
<linearGradient id="paint26_linear_463_5208" x1="174.516" y1="298.255" x2="140.464" y2="107.76" gradientUnits="userSpaceOnUse">
<stop stop-color="#3C3C3B"/>
<stop offset="0.47" stop-color="#575756"/>
<stop offset="1" stop-color="#706F6F"/>
</linearGradient>
<linearGradient id="paint27_linear_463_5208" x1="133.326" y1="256.373" x2="155.514" y2="269.978" gradientUnits="userSpaceOnUse">
<stop stop-color="#575756"/>
<stop offset="1" stop-color="#3C3C3B"/>
</linearGradient>
<linearGradient id="paint28_linear_463_5208" x1="147.399" y1="204.867" x2="139.415" y2="113.624" gradientUnits="userSpaceOnUse">
<stop stop-color="#2E2D2C"/>
<stop offset="0.57" stop-color="#474746"/>
<stop offset="1" stop-color="#575756"/>
</linearGradient>
<linearGradient id="paint29_linear_463_5208" x1="148.138" y1="254.076" x2="121.874" y2="266.874" gradientUnits="userSpaceOnUse">
<stop offset="0.01" stop-color="#2E2D2C"/>
<stop offset="0.85" stop-color="#393938"/>
<stop offset="1" stop-color="#3C3C3B"/>
</linearGradient>
<linearGradient id="paint30_linear_463_5208" x1="160.762" y1="240.688" x2="124.19" y2="228.379" gradientUnits="userSpaceOnUse">
<stop stop-color="#3C3C3B"/>
<stop offset="1" stop-color="#3C3C3B"/>
</linearGradient>
<linearGradient id="paint31_linear_463_5208" x1="122.3" y1="177.102" x2="403.904" y2="177.102" gradientUnits="userSpaceOnUse">
<stop stop-color="#3C3C3B"/>
<stop offset="0.52" stop-color="#575756"/>
<stop offset="1" stop-color="#706F6F"/>
</linearGradient>
<linearGradient id="paint32_linear_463_5208" x1="369.426" y1="-10.7626" x2="304.975" y2="111.17" gradientUnits="userSpaceOnUse">
<stop stop-color="#878787"/>
<stop offset="0.42" stop-color="#706F6F"/>
<stop offset="0.77" stop-color="#575756"/>
<stop offset="0.99" stop-color="#3C3C3B"/>
</linearGradient>
<linearGradient id="paint33_linear_463_5208" x1="88.761" y1="307.191" x2="231.105" y2="152.665" gradientUnits="userSpaceOnUse">
<stop stop-color="#3C3C3B"/>
<stop offset="0.52" stop-color="#575756"/>
<stop offset="1" stop-color="#706F6F"/>
</linearGradient>
<linearGradient id="paint34_linear_463_5208" x1="111.383" y1="309.756" x2="379.546" y2="185.197" gradientUnits="userSpaceOnUse">
<stop stop-color="#878787"/>
<stop offset="0.3" stop-color="#706F6F"/>
<stop offset="0.64" stop-color="#575756"/>
<stop offset="0.98" stop-color="#3C3C3B"/>
</linearGradient>
<radialGradient id="paint35_radial_463_5208" cx="0" cy="0" r="1" gradientUnits="userSpaceOnUse" gradientTransform="translate(259.761 219.224) scale(134.385 134.332)">
<stop stop-color="#DADADA"/>
<stop offset="1" stop-color="#706F6F"/>
</radialGradient>
<linearGradient id="paint36_linear_463_5208" x1="342.899" y1="65.3636" x2="403.904" y2="65.3636" gradientUnits="userSpaceOnUse">
<stop stop-color="#575756"/>
<stop offset="1" stop-color="#DADADA"/>
</linearGradient>
<linearGradient id="paint37_linear_463_5208" x1="241.983" y1="67.5305" x2="317.333" y2="164.392" gradientUnits="userSpaceOnUse">
<stop stop-color="#FDFDFD"/>
<stop offset="0.13" stop-color="#E5E5E5"/>
<stop offset="0.4" stop-color="#BBBBBB"/>
<stop offset="0.65" stop-color="#9D9D9D"/>
<stop offset="0.85" stop-color="#8A8A8A"/>
<stop offset="1" stop-color="#848484"/>
</linearGradient>
<radialGradient id="paint38_radial_463_5208" cx="0" cy="0" r="1" gradientUnits="userSpaceOnUse" gradientTransform="translate(98.7088 190.494) scale(38.9921 39.3664)">
<stop stop-color="#878787"/>
<stop offset="0.08" stop-color="#757575"/>
<stop offset="0.2" stop-color="#5F5F5E"/>
<stop offset="0.28" stop-color="#575756"/>
<stop offset="0.85" stop-color="#3C3C3B"/>
<stop offset="0.91" stop-color="#3F3F3E"/>
<stop offset="0.96" stop-color="#494948"/>
<stop offset="1" stop-color="#575756"/>
</radialGradient>
<radialGradient id="paint39_radial_463_5208" cx="0" cy="0" r="1" gradientUnits="userSpaceOnUse" gradientTransform="translate(326.579 356.238) scale(17.6283 17.7976)">
<stop stop-color="#878787"/>
<stop offset="0.08" stop-color="#757575"/>
<stop offset="0.2" stop-color="#5F5F5E"/>
<stop offset="0.28" stop-color="#575756"/>
<stop offset="0.85" stop-color="#3C3C3B"/>
<stop offset="0.91" stop-color="#3F3F3E"/>
<stop offset="0.96" stop-color="#494948"/>
<stop offset="1" stop-color="#575756"/>
</radialGradient>
<linearGradient id="paint40_linear_463_5208" x1="135.074" y1="118.567" x2="174.925" y2="118.567" gradientUnits="userSpaceOnUse">
<stop stop-color="#B2B2B2"/>
<stop offset="1" stop-color="#A4A4A4"/>
</linearGradient>
</defs>
</svg>
