<svg width="40" height="40" viewBox="0 0 40 40" fill="none" xmlns="http://www.w3.org/2000/svg">
<rect width="40" height="40" rx="12" fill="#1A1A1A"/>
<path d="M11.774 23H13.808V14.9H11.774V23ZM16.1968 23H18.2128V17.264H20.1268V15.89H18.2068L18.2128 15.656C18.2128 15.336 18.3488 15.122 18.6208 15.014C18.8928 14.906 19.3428 14.852 19.9708 14.852H20.1688V13.526H19.9228C18.7268 13.526 17.8068 13.69 17.1628 14.018C16.5188 14.346 16.1968 14.89 16.1968 15.65L16.2088 15.89H14.7448V17.264H16.1968V23ZM22.6994 23H25.7774L27.7694 15.89H25.6574L24.0254 22.202H24.4454L22.7894 15.89H20.6774L22.6994 23ZM21.1994 25.796C22.4234 25.796 23.4094 25.616 24.1574 25.256C24.9094 24.9 25.4494 24.148 25.7774 23L23.9114 22.994C23.7434 23.594 23.4554 23.982 23.0474 24.158C22.6394 24.338 22.0234 24.43 21.1994 24.434V25.796Z" fill="white"/>
</svg>
