<svg width="41" height="39" viewBox="0 0 41 39" fill="none" xmlns="http://www.w3.org/2000/svg">
<path d="M6.60167 21.1886C6.60167 21.1378 6.62597 21.0604 6.7033 21.0339C6.83365 20.9566 7.32414 20.4394 7.86544 19.7698C9.05188 18.3487 9.28386 18.0393 9.69702 17.3431C11.3496 14.7617 11.5816 14.2711 11.5816 13.8578L11.5551 13.5992L11.4535 13.7804C11.3762 13.8578 11.3496 13.9595 11.3762 13.986C11.4535 14.0633 11.2723 14.3993 11.195 14.3484C11.142 14.3484 11.1177 14.3484 11.1685 14.3993C11.2215 14.4501 10.1367 16.0524 9.77435 16.4392C9.61969 16.5939 9.59539 16.6204 9.61969 16.49C9.61969 16.4126 9.67272 16.3088 9.72353 16.2314C10.0085 15.8447 10.678 14.8126 10.9873 14.3219C11.1685 14.0125 11.3762 13.7031 11.4535 13.6501C11.5043 13.5727 11.5308 13.4953 11.5043 13.4445C11.4535 13.3141 11.3496 13.4445 11.0403 13.9595C10.91 14.1937 10.7553 14.4258 10.731 14.4766C10.678 14.5275 10.6007 14.6822 10.5233 14.786C10.4725 14.8899 10.4195 14.9673 10.3952 14.9164C10.3952 14.8899 10.5764 14.6048 10.7818 14.2446C10.9873 13.9352 11.142 13.6257 11.0911 13.5992C11.0646 13.5727 11.0911 13.5219 11.142 13.5219C11.2723 13.4953 11.659 12.7727 11.5816 12.7218C11.5551 12.6953 11.4778 12.8235 11.3762 13.0047C11.2723 13.1859 11.1685 13.3406 11.1177 13.3406C11.0646 13.3406 10.8326 13.6766 10.6007 14.0633C9.20654 16.3088 6.39399 19.6394 4.43205 21.319C3.53062 22.0925 2.83245 22.5567 2.4193 22.634L2.08347 22.7114L2.05917 22.402C2.03266 22.1964 2.03266 22.0152 2.05917 21.9887C2.1608 21.8605 2.10999 21.6527 1.98184 21.7301C1.92882 21.7566 1.90451 21.7566 1.90451 21.7058C1.90451 21.6527 1.95533 21.6019 2.03266 21.6019C2.08347 21.6019 2.1365 21.4737 2.18731 21.2417C2.34197 20.3112 2.96281 18.4525 3.37375 17.679C3.42678 17.5995 3.55492 17.3166 3.65877 17.0845C3.76261 16.8525 3.91726 16.543 3.99459 16.3861C4.07192 16.2314 4.27739 15.8712 4.45856 15.5352C4.61322 15.2258 4.84521 14.8126 4.94905 14.6048C5.05289 14.4258 5.25836 14.0633 5.3622 13.8048C5.49035 13.5727 5.645 13.2368 5.74885 13.0578C5.82617 12.8765 5.9035 12.6445 5.9035 12.4632L5.8792 12.1538L5.38872 11.8444C4.97556 11.5593 4.84521 11.5085 4.63973 11.5328C4.40775 11.5593 4.35472 11.6102 4.0189 12.0765C3.68528 12.5671 3.55492 12.7992 2.83245 14.2954C2.62698 14.7352 2.36848 15.2767 2.26464 15.4844C2.1608 15.69 1.95533 16.1541 1.82718 16.543C1.69683 16.9033 1.51566 17.3939 1.41403 17.6525C1.3367 17.8846 1.20635 18.2713 1.15553 18.4791C1.0782 18.6846 1.00087 19.0205 0.947848 19.2018C0.793191 19.7698 0.406548 21.8605 0.433061 22.0417C0.433061 22.0925 0.587718 22.2981 0.768888 22.5323C1.3367 23.255 2.08347 23.6418 2.85897 23.6153C3.06444 23.6153 3.2191 23.6153 3.24561 23.6153C3.55492 23.6153 4.89823 22.8661 5.43953 22.3511C6.11119 21.7566 6.60167 21.2417 6.60167 21.1886ZM9.18223 16.8768C9.28386 16.9033 9.36119 16.9541 9.38771 16.9541C9.38771 16.9541 9.33689 16.9806 9.23305 17.0072C9.12921 17.0072 9.05188 16.9806 9.05188 16.9298C9.05188 16.8768 9.07839 16.8525 9.18223 16.8768ZM5.72233 8.59119C5.77536 8.64203 5.82617 8.71938 5.85269 8.7459C5.85269 8.79673 5.95653 8.92712 6.05816 9.05531C6.18851 9.21001 6.29015 9.26085 6.49783 9.26085C6.62597 9.26085 6.78063 9.26085 6.80714 9.28737C6.93529 9.44207 7.19378 9.10614 7.68427 8.15139C8.04661 7.45521 8.40674 6.86071 8.95025 6.13801C9.12921 5.90595 9.31038 5.59654 9.31038 5.49267C9.31038 5.3888 9.36119 5.23409 9.38771 5.18326C9.44073 5.07938 9.41422 4.97551 9.28386 4.71914C9.05188 4.20199 8.92373 4.22851 8.27859 4.82081C7.60694 5.44184 6.34317 7.11928 5.9035 7.89281C5.6207 8.4608 5.59419 8.51384 5.72233 8.59119Z" fill="white"/>
<path d="M21.9033 17.9614C21.7994 18.0653 21.7994 18.0896 21.9563 18.167C22.0336 18.1935 22.0844 18.2973 22.0579 18.3747C22.0071 18.4521 22.0336 18.4786 22.1353 18.4521C22.2391 18.4255 22.4203 18.4786 22.5749 18.5802C22.8577 18.7615 22.8577 18.788 23.1162 18.6333C23.4255 18.4255 23.684 18.0388 23.6067 17.8067C23.5294 17.599 22.6014 16.8763 22.2391 16.7481C21.5674 16.516 19.5812 16.7216 17.7474 17.1879C16.0462 17.6255 14.8575 18.0653 12.9221 18.9162C12.3543 19.1747 11.9168 19.3029 11.8903 19.2521C11.8638 19.2013 11.6584 19.2521 11.3733 19.4068L10.8829 19.6146L11.1679 18.8653C11.296 18.4521 11.6053 17.7294 11.813 17.2896C12.0185 16.8254 12.1997 16.4122 12.1997 16.3348C12.1997 16.284 12.509 15.6386 12.8956 14.9668C13.2579 14.2441 13.7749 13.2628 14.0069 12.7722C14.3936 11.9456 15.58 9.80403 18.6511 4.38272C19.4509 2.93733 19.8397 2.34282 20.3545 1.59361C20.4318 1.48973 20.5092 1.36155 20.5357 1.28419C20.5622 1.18032 20.6395 1.12949 20.6903 1.12949C20.7433 1.12949 20.7677 1.02562 20.7677 0.897432C20.7677 0.742727 20.7168 0.689685 20.5622 0.689685C20.4583 0.689685 20.3545 0.612333 20.2772 0.484148C20.096 0.0200328 19.0399 0.121696 18.9626 0.612332C18.9361 0.716205 18.8587 0.84439 18.7814 0.897432C18.7041 0.921743 18.5737 1.10297 18.4721 1.28419C18.3683 1.46542 18.1363 1.77483 17.9286 1.98037C17.7474 2.18812 17.6193 2.39365 17.6458 2.44669C17.6701 2.47101 17.078 3.58267 16.3025 4.92419C14.7802 7.47903 13.8766 9.10565 12.3278 12.0229C11.7865 13.0307 11.2187 14.0363 11.1148 14.2441C10.6774 14.9933 9.51525 17.7294 8.37962 20.6732C8.22496 21.1108 8.17415 21.1373 7.06283 21.8092C6.4442 22.1694 5.46323 22.7109 4.89542 23.0225C4.35412 23.3319 3.78631 23.6148 3.65816 23.6921L3.42397 23.8225L3.63165 23.9507C3.73549 24.0546 3.83712 24.1828 3.86363 24.2866C3.89015 24.364 3.99178 24.4679 4.09562 24.4922C4.19946 24.4922 4.35412 24.5695 4.43145 24.6226C4.53529 24.7265 4.81809 24.6734 5.9029 24.3905C6.65188 24.2093 7.244 24.0789 7.27051 24.0789C7.29702 24.1054 7.01201 25.1132 6.67618 26.3509C6.00674 28.7267 5.33509 31.6705 5.25776 32.5479C5.18043 33.1932 5.30857 34.2519 5.54056 34.8199C5.84987 35.6707 6.1614 36.0597 6.83084 36.4465C7.19318 36.652 7.63064 36.8598 7.81181 36.9106C8.45695 37.0918 8.81929 37.0388 9.72293 36.6012C10.3416 36.3161 10.6774 36.1105 10.9867 35.7746C11.4772 35.2575 12.4051 33.9159 12.4051 33.7347C12.4051 33.6574 12.562 33.348 12.741 33.0385C14.0843 30.6627 14.3162 28.6228 13.5164 26.4813C12.8183 24.6226 11.6053 23.4092 10.0322 23.0225L9.61909 22.9451L9.77374 22.4788C9.85107 22.2202 9.97922 21.9639 10.0831 21.86C10.4189 21.4975 14.2654 19.588 15.4254 19.2013C15.7347 19.0974 16.097 18.9692 16.2008 18.9162C17.0515 18.5029 20.6903 17.7294 21.6978 17.7294C22.0336 17.7294 22.0844 17.7802 21.9033 17.9614ZM12.8448 13.0816C12.8713 13.0042 12.9221 12.9534 12.9729 12.9799C12.9994 13.0042 12.9729 13.0816 12.8956 13.1346C12.794 13.212 12.794 13.212 12.8448 13.0816ZM12.5863 13.5987C12.9221 13.0042 12.8183 13.3136 12.3543 14.2441C12.0958 14.7612 11.8638 15.1988 11.813 15.2497C11.7092 15.3292 12.277 14.0894 12.5863 13.5987ZM11.5037 15.716C11.6053 15.5082 11.6827 15.38 11.7092 15.4309C11.7357 15.4839 11.6318 15.7403 11.5037 15.9989C11.2452 16.4652 11.2452 16.4122 11.5037 15.716ZM7.50249 24.8812C7.57982 24.7773 7.57982 24.8281 7.52901 25.0602C7.50249 25.2414 7.42517 25.4735 7.39865 25.5508C7.27051 25.7055 7.37435 25.164 7.50249 24.8812ZM7.06283 26.3265C7.14015 26.1188 7.19318 25.9906 7.19318 26.068C7.21969 26.1453 7.14015 26.3774 7.06283 26.5851C7.01201 26.7907 6.93468 26.9188 6.93468 26.8415C6.93468 26.7641 6.9855 26.5321 7.06283 26.3265ZM6.47071 28.4946C6.49501 28.3664 6.59885 27.9775 6.67618 27.6415C6.78002 27.3078 6.85735 27.0227 6.88387 27.0492C6.90817 27.0758 6.83084 27.436 6.75351 27.8228C6.65188 28.2626 6.52153 28.6228 6.47071 28.6493C6.4442 28.6759 6.4442 28.6228 6.47071 28.4946ZM6.39338 28.8571C6.4442 28.9079 6.4442 28.9853 6.41768 29.0361C6.36687 29.1135 6.36687 29.0891 6.36687 28.9853C6.34036 28.8814 6.36687 28.8306 6.39338 28.8571ZM6.21221 29.7345C6.23872 29.7588 6.23872 29.8361 6.21221 29.9135C6.1857 29.9665 6.1614 29.94 6.1614 29.8361C6.1614 29.7588 6.1857 29.708 6.21221 29.7345ZM6.83084 28.9344C6.72921 29.3212 6.57234 29.94 6.49501 30.276C6.41768 30.6119 6.31605 31.076 6.23872 31.3081C6.1857 31.5158 6.10837 31.7213 6.08407 31.7213C6.05755 31.7213 6.05755 31.6175 6.08407 31.5158C6.10837 31.4119 6.1614 31.1025 6.21221 30.8439C6.26303 30.3268 6.62537 28.7775 6.67618 28.6759C6.7027 28.6228 6.80654 28.2626 6.90817 27.8228C7.01201 27.4095 7.244 26.5851 7.39865 26.0171C7.57982 25.4491 7.7875 24.7508 7.86483 24.4679C7.94216 24.2093 8.07031 23.9772 8.12112 23.9772C8.19845 23.9772 8.19845 24.0789 8.09682 24.4414C8.01949 24.6734 7.91565 25.0359 7.88914 25.2414C7.83832 25.4491 7.73448 25.7586 7.65715 25.9398C7.57982 26.1188 7.39865 26.7133 7.27051 27.2305C7.11585 27.7719 6.93468 28.5212 6.83084 28.9344ZM8.04379 28.1587C8.01949 28.2361 7.99298 28.2095 7.99298 28.1079C7.99298 28.0305 7.99298 27.9532 8.04379 28.004C8.07031 28.0305 8.07031 28.1079 8.04379 28.1587ZM9.82456 23.8468C11.064 23.9772 11.7357 24.6469 12.1997 26.1188C12.7675 28.004 12.4581 30.0947 11.2695 32.1346C10.3416 33.7878 9.20593 35.1293 8.43265 35.5426C8.14764 35.6707 7.81181 35.8011 7.68366 35.8011C7.42517 35.8011 7.39865 35.7481 7.27051 35.337C6.83084 34.0706 7.29702 31.2307 8.53428 27.0227C8.68893 26.5078 8.84359 25.9906 8.89662 25.8359L8.94743 25.5773L8.79278 25.8094C8.68893 25.9398 8.66463 25.9641 8.68893 25.8602C8.71545 25.7586 8.89662 25.2679 9.05127 24.7508L9.36059 23.7695L9.82456 23.8468ZM9.51525 20.2334C9.46443 20.3107 9.30977 20.4654 9.17942 20.5428C8.92092 20.6975 8.92092 20.6975 9.00046 20.492C9.10209 20.1295 9.4114 19.5615 9.3871 19.7936C9.33408 20.0013 9.33408 20.0013 9.46443 19.7693C9.54176 19.6146 9.56827 19.4842 9.51525 19.4598C9.48873 19.4333 9.54176 19.356 9.61909 19.2786C9.72293 19.1747 9.82456 19.1482 9.85107 19.2013C9.90189 19.2521 9.69641 19.9483 9.51525 20.2334ZM9.90189 18.9427C9.85107 19.02 9.80026 19.02 9.80026 18.9692C9.80026 18.9427 9.85107 18.8388 9.90189 18.7615C9.95491 18.6841 10.0057 18.6576 10.0057 18.7106C10.0057 18.7615 9.95491 18.8653 9.90189 18.9427ZM11.6053 19.5372C11.3999 19.6389 11.3999 19.6389 11.5545 19.5107C11.6584 19.4068 11.7357 19.356 11.76 19.3803C11.7865 19.4068 11.7357 19.4598 11.6053 19.5372ZM13.5673 19.02C13.2579 19.1747 12.9729 19.2786 12.9221 19.2786C12.8713 19.2786 13.0768 19.1747 13.3618 19.02C13.6446 18.8919 13.9296 18.7615 14.0069 18.7615C14.0312 18.7615 13.8523 18.8919 13.5673 19.02ZM15.812 18.167C14.0577 18.788 13.9539 18.8123 14.7802 18.4786C15.6839 18.0653 17.827 17.3934 18.883 17.1879C19.3735 17.084 20.2264 16.9801 20.8207 16.9801L21.8768 16.9536L20.7942 17.031C19.4266 17.1348 17.5685 17.5747 15.812 18.167Z" fill="white"/>
<path d="M40.4056 17.3667C40.304 17.3667 40.2775 17.3158 40.304 17.212C40.3813 16.9799 40.0963 16.8517 39.2965 16.7987C38.574 16.7479 38.3664 16.7744 37.6969 17.0307C37.2838 17.1611 36.9479 17.3158 36.9479 17.3667C36.9479 17.4197 36.9988 17.444 37.0518 17.4197C37.1026 17.3932 37.2838 17.3424 37.3876 17.3158C37.7477 17.212 37.4119 17.4197 36.8441 17.6518C36.3801 17.833 36.3536 17.833 36.5856 17.6518C36.9988 17.3158 36.5856 17.444 35.5538 18.012C35.0125 18.2971 34.522 18.58 34.4712 18.58C34.4182 18.6065 34.4182 18.3236 34.4447 17.8573C34.522 17.0064 34.3917 14.94 34.1862 13.7797C33.9542 12.436 33.4637 11.0414 32.9998 10.4226C32.7921 10.1132 32.5336 9.85463 32.4828 9.85463C32.4054 9.85463 32.3016 9.75076 32.2508 9.59605C32.2 9.41704 32.1469 9.39051 32.0453 9.46787C31.9923 9.5187 31.8376 9.57174 31.683 9.59605C31.5018 9.59605 31.3206 9.75076 31.1417 9.98502C30.934 10.2944 30.8832 10.3453 30.9605 10.5265C30.4965 11.1984 29.6702 12.5907 29.6702 12.7211C29.6702 12.8493 29.5399 13.1079 29.0251 14.0118C28.8174 14.3477 28.7158 14.4494 28.6627 14.3477C28.5854 14.2438 28.5854 14.2704 28.6384 14.3985C28.6627 14.5024 28.5081 14.8383 28.1723 15.3533C27.2686 16.7213 26.3407 17.9877 25.8767 18.5027C25.6447 18.7612 25.437 18.9933 25.437 19.0198C25.437 19.0972 24.5334 20.1293 23.6298 21.084C22.6245 22.1692 21.7982 22.8919 21.67 22.788C21.617 22.7106 21.9528 20.8277 22.2378 19.8972C22.651 18.4253 23.7601 15.329 24.1467 14.5532C24.3014 14.2704 24.6637 13.5477 24.9465 12.9797C25.2316 12.3852 25.6955 11.5078 25.9783 10.9906C26.2633 10.5 26.5727 9.82811 26.6765 9.5187C26.8046 9.18277 26.9593 8.84905 27.0123 8.74517C27.1405 8.53743 27.0366 8.12414 26.882 8.12414C26.8312 8.12414 26.8312 8.04679 26.8577 7.96944C26.9085 7.84125 26.8577 7.81473 26.6235 7.86777C26.418 7.9186 26.3407 7.89208 26.3142 7.73738C26.2633 7.58267 26.186 7.55615 25.8237 7.55615C25.437 7.55615 25.3597 7.58267 25.2559 7.79042L24.0429 9.69992C23.4508 10.6812 22.83 11.9984 22.83 12.2813C22.83 12.4117 22.4941 13.1852 22.1075 14.0361C21.7208 14.8627 21.3342 15.7401 21.2812 15.9478C20.5587 18.0385 20.3797 18.6065 20.1721 19.4066C19.8119 20.9293 19.7346 21.7559 19.8362 22.5051C20.0174 23.5107 20.3532 24.0787 21.1022 24.5958C21.67 25.0091 22.134 25.0091 22.8565 24.6732C23.4508 24.3372 24.6637 23.2543 25.3862 22.3504C25.6447 22.041 26.1087 21.4465 26.4445 21.0332C26.8046 20.6199 27.2951 19.8972 27.5801 19.4596C27.8364 19.0198 28.1988 18.4783 28.3534 18.2706C28.9212 17.5214 29.9287 15.6892 29.9287 15.4572C29.9287 15.2759 30.2115 14.708 30.702 13.9079C31.398 12.7454 31.5791 12.2305 31.5283 11.4039C31.5283 11.3 31.5283 11.1984 31.5018 11.1188C31.6565 11.1984 31.7868 11.2492 31.9415 11.2492C32.3789 11.2492 32.4828 11.5321 32.7921 13.4946C32.9224 14.3477 32.9732 15.1212 32.9732 16.1533C32.9732 17.6518 32.9224 18.2706 32.6109 19.4331C32.5336 19.7933 32.4319 20.2066 32.4054 20.337C32.3546 20.5426 32.2 20.6973 31.8641 20.9293C30.8301 21.5747 30.2115 22.0145 29.5156 22.5824C29.1289 22.8919 28.6627 23.2278 28.4816 23.3317C28.3026 23.409 27.8894 23.7449 27.5536 24.0544C27.2443 24.3638 26.5727 25.0091 26.0314 25.4997C25.1012 26.3771 23.8374 27.7209 23.0885 28.6491C22.83 28.9585 22.7283 29.0359 22.7526 28.9077C22.8057 28.8038 22.8057 28.6999 22.7791 28.6999C22.7283 28.6999 21.2038 30.9211 20.8702 31.5156C20.2229 32.6515 19.4761 34.3025 19.4761 34.6384C19.4761 34.6892 19.5534 34.7423 19.6308 34.7423C19.7854 34.7423 19.7854 34.7688 19.6308 34.8705C19.4231 35.0517 19.4496 36.2142 19.6551 36.9104C19.8627 37.5557 20.6625 38.537 21.0492 38.6917C21.5662 38.8464 22.4433 38.7425 23.0885 38.4331C24.2506 37.8651 26.2899 35.9556 27.6044 34.2008C28.5346 32.9875 30.3662 30.1475 31.1152 28.8038C32.1226 26.9717 33.6449 23.2278 34.005 21.652C34.1089 21.1614 34.1354 21.1371 35.0125 20.4917C36.5613 19.3557 39.1153 18.0894 40.1736 17.8838C40.483 17.833 40.536 17.78 40.536 17.5744C40.536 17.444 40.483 17.3667 40.4056 17.3667ZM22.9073 14.1157C23.0885 13.9587 23.1923 13.8814 23.1658 13.9344C22.7283 15.1721 22.4168 15.9213 22.3925 15.8174C22.3925 15.7666 22.3152 15.7157 22.2887 15.7157C22.2378 15.7157 22.1848 15.7931 22.1848 15.8705C22.1605 16.0517 22.134 16.0517 22.0832 15.8705C22.0036 15.6627 22.5715 14.4759 22.9073 14.1157ZM21.7982 16.3346C21.849 16.1799 22.0036 16.129 22.0036 16.2572C22.0036 16.308 21.9528 16.4384 21.8755 16.5423C21.7474 16.7213 21.6943 16.6197 21.7982 16.3346ZM20.7399 22.0653C20.6117 23.3051 20.404 23.3317 20.3532 22.0918C20.3024 21.42 20.6625 19.3557 20.8172 19.3027C20.8945 19.2784 20.921 19.201 20.8945 19.1237C20.8437 19.0198 20.9984 18.401 21.385 17.2893C21.5397 16.9026 21.617 16.7744 21.67 16.876C21.7208 16.9799 21.7982 16.9534 21.9263 16.7987C22.1075 16.5666 22.2887 16.4893 22.2887 16.6705C22.2887 16.7213 22.1848 17.0064 22.0567 17.3158C21.3585 18.9425 20.921 20.5426 20.7399 22.0653ZM30.3419 13.6493C29.9795 14.3212 29.5399 15.1478 29.3852 15.4572C29.2305 15.7666 28.7931 16.3854 28.4573 16.8517C27.167 18.5557 27.1913 18.4253 28.4816 16.465C29.0251 15.6627 29.6172 14.7345 29.7475 14.4251C30.0303 13.8571 30.7285 12.7211 30.9097 12.5133C30.987 12.436 30.7285 12.9532 30.3419 13.6493ZM30.934 11.3774C30.6512 11.7907 30.4435 12.1531 30.4192 12.1531C30.3154 12.1531 30.7528 11.2227 31.0886 10.7077C31.1417 10.7851 31.1925 10.8359 31.2433 10.8867C31.1417 11.0171 31.0378 11.1984 30.934 11.3774ZM25.6447 27.1264C25.9275 26.7396 26.133 26.5584 26.133 26.7131C26.133 26.7131 25.954 26.9186 25.722 27.1529L25.3089 27.5905L25.6447 27.1264ZM24.7919 28.0546C24.8427 27.9772 24.92 27.9264 24.9465 27.9264C24.9731 27.9264 24.9465 27.9772 24.8692 28.0546C24.8184 28.1585 24.7411 28.2093 24.7146 28.2093C24.7146 28.2093 24.7411 28.1585 24.7919 28.0546ZM20.8945 36.8595C20.8702 36.7822 20.8945 36.4462 20.921 36.1103C21.0492 35.0782 22.5206 32.2891 24.1202 30.1475C25.4878 28.2889 28.6119 25.1638 30.6755 23.6146C31.5791 22.9184 31.5791 22.8919 30.934 24.4411C30.7285 24.9826 30.47 25.4224 30.4192 25.4732C30.2623 25.5263 29.6172 26.9451 29.6967 27.049C29.721 27.049 29.7741 26.996 29.7984 26.8943C29.9287 26.5584 30.47 25.6036 30.5208 25.6545C30.5739 25.7053 29.3079 28.1076 28.5081 29.4757C28.1479 30.0945 27.7591 30.6117 27.6818 30.6382C27.5271 30.689 27.2686 30.9719 26.418 32.2117C25.954 32.9344 24.4318 34.6892 23.6563 35.4141C23.2961 35.7479 22.7018 36.2142 22.3395 36.4706C21.6435 36.9104 20.9984 37.0916 20.8945 36.8595ZM27.9403 24.8544C27.9403 24.8036 27.9933 24.7505 28.0441 24.7505C28.0706 24.7505 28.1214 24.7771 28.1214 24.8036C28.1214 24.8279 28.0706 24.8809 28.0441 24.9052C27.9933 24.9318 27.9403 24.9052 27.9403 24.8544ZM29.0251 24.1825C28.972 24.1825 28.9212 24.1317 28.8947 24.0787C28.8704 24.0278 28.8704 23.977 28.9212 23.977C28.972 23.977 29.0251 24.0278 29.0759 24.0787C29.1024 24.1317 29.0759 24.1825 29.0251 24.1825ZM29.2305 23.8466C29.3344 23.8731 29.3852 23.8466 29.3852 23.7693C29.3852 23.6676 29.4382 23.6146 29.5664 23.6411C29.7475 23.6411 29.7475 23.6411 29.5399 23.7958C29.3079 24.0013 29.2305 24.0278 29.1532 23.8997C29.1289 23.8466 29.1532 23.8223 29.2305 23.8466ZM30.3662 22.9957C30.47 22.9692 30.5208 22.9957 30.4965 23.0223C30.47 23.0731 30.3927 23.1239 30.3154 23.1239C30.1342 23.1239 30.1607 23.0466 30.3662 22.9957ZM30.7285 22.7372C30.7285 22.6863 30.8567 22.5559 31.0113 22.4277L31.2963 22.22L31.0886 22.5316C30.8832 22.8145 30.7285 22.9184 30.7285 22.7372ZM26.0314 35.1025C25.9275 35.2837 25.4105 35.7479 25.4105 35.697C25.4105 35.6705 25.5917 35.465 25.7994 35.2572C26.0048 35.0517 26.1087 34.9743 26.0314 35.1025ZM29.0251 30.7929C28.972 30.8945 28.8947 31.0249 28.8174 31.0492C28.7666 31.1023 28.7931 30.9984 28.8947 30.8702C29.0759 30.5586 29.1532 30.5343 29.0251 30.7929ZM30.4965 27.7452C30.3927 27.9529 30.2888 28.1319 30.2888 28.1585C30.2888 28.185 30.185 28.3662 30.0569 28.5452C29.9287 28.6999 29.7741 29.0116 29.6967 29.1906C29.6437 29.3453 29.1532 30.1984 28.6384 31.0249C28.0949 31.8758 27.7083 32.5985 27.7348 32.6515C27.7591 32.7024 27.7348 32.7289 27.6818 32.7024C27.631 32.6759 27.2951 33.0648 26.9593 33.5555C26.5992 34.0196 25.9783 34.7423 25.6182 35.1556C25.2316 35.5688 24.9996 35.9048 25.0504 35.9048C25.1012 35.9048 25.1277 35.9291 25.1012 36.0064C25.0769 36.0595 25.0239 36.0838 24.9465 36.033C24.92 36.0064 24.5864 36.265 24.1976 36.601C23.8374 36.9369 23.1923 37.401 22.8057 37.6065C22.0036 38.0463 21.4115 38.1502 21.1795 37.8651C21.0492 37.6861 21.0492 37.6861 21.6435 37.5049C21.9263 37.4275 22.4168 37.1689 22.7283 36.9369C23.6828 36.265 26.5461 33.1157 27.0366 32.1609C27.114 32.0305 27.1405 32.0305 27.2443 32.1344C27.3725 32.2383 27.4255 32.2117 27.5271 31.9797C27.7348 31.5929 27.7083 31.4117 27.5271 31.5929C27.399 31.6946 27.3725 31.6946 27.5028 31.489C27.5536 31.3343 27.631 31.2835 27.6575 31.3609C27.7083 31.5399 27.8121 31.489 27.9668 31.2062C28.0706 31.0249 28.1723 30.9211 28.2253 30.9476C28.2761 30.9984 28.2253 31.1266 28.1214 31.257C27.9933 31.3609 27.9403 31.489 27.9933 31.489C28.1479 31.489 28.3799 31.1531 28.3799 30.9719C28.3799 30.8702 28.3534 30.8172 28.3026 30.8172C28.2496 30.8172 28.3269 30.6382 28.4816 30.4039C28.6384 30.1718 28.7401 29.9133 28.7158 29.8116C28.6892 29.7343 28.7158 29.6812 28.7931 29.6812C28.8439 29.6812 28.8947 29.6304 28.8704 29.5265C28.8704 29.4492 28.8947 29.3983 28.9477 29.4248C28.972 29.4492 29.0251 29.3983 29.0251 29.321C29.0251 29.2436 29.0494 29.1663 29.1024 29.1663C29.2062 29.1663 29.6172 28.2889 29.5929 28.185C29.5664 28.1585 29.5929 28.1076 29.6437 28.1076C29.6967 28.1076 29.7475 28.0546 29.7475 27.9772C29.7475 27.8999 29.7741 27.8225 29.8249 27.8225C29.8514 27.8225 29.9795 27.6413 30.0569 27.4358C30.1607 27.2037 30.4192 26.7639 30.6755 26.4545C30.9097 26.1186 31.2963 25.4732 31.5018 25.0091C31.7338 24.5185 31.915 24.2091 31.915 24.3129C31.915 24.545 30.7793 27.3076 30.4965 27.7452ZM32.1469 21.2144C32.1226 21.3426 31.683 21.652 29.7475 23.0996C28.8174 23.7693 28.6892 23.9505 28.8174 24.1052C28.972 24.2599 28.9477 24.3638 28.7666 24.3638C28.6892 24.3638 28.5346 24.4411 28.4307 24.545C28.2761 24.6997 28.2761 24.6997 28.3799 24.545C28.5854 24.2864 28.4307 24.2356 28.1479 24.4411C27.7856 24.7262 27.4498 25.1373 27.5801 25.1373C27.6818 25.1373 27.6818 25.1638 27.5801 25.2942C27.5271 25.3716 27.399 25.3959 27.3216 25.3716C27.2178 25.345 26.9858 25.4997 26.7008 25.7826C26.4445 26.0412 26.1087 26.3506 25.954 26.481C25.3597 26.996 25.4105 26.8413 26.0557 26.1959C27.1405 25.0865 28.6384 23.7958 29.8249 22.8653C31.9658 21.2409 32.2 21.084 32.1469 21.2144Z" fill="white"/>
</svg>
