<svg width="19" height="19" viewBox="0 0 19 19" fill="none" xmlns="http://www.w3.org/2000/svg">
<path d="M18.4222 7.5498C18.4224 7.69823 18.3784 7.84335 18.296 7.96679C18.2136 8.09024 18.0965 8.18646 17.9593 8.24327C17.8222 8.30009 17.6713 8.31494 17.5258 8.28595C17.3802 8.25696 17.2465 8.18544 17.1416 8.08043L14.6722 5.61012L10.7029 9.58043C10.5621 9.72116 10.3713 9.80022 10.1722 9.80022C9.97322 9.80022 9.78235 9.72116 9.64162 9.58043C9.50089 9.4397 9.42182 9.24883 9.42182 9.0498C9.42182 8.85078 9.50089 8.65991 9.64162 8.51918L13.6119 4.54981L11.1416 2.08043C11.0366 1.97554 10.9651 1.84185 10.9361 1.69629C10.9071 1.55072 10.922 1.39983 10.9788 1.26271C11.0356 1.1256 11.1318 1.00842 11.2553 0.926015C11.3787 0.843612 11.5238 0.799688 11.6722 0.799805H17.6722C17.8712 0.799805 18.0619 0.878823 18.2026 1.01947C18.3432 1.16013 18.4222 1.35089 18.4222 1.5498V7.5498ZM14.6722 9.7998C14.4733 9.7998 14.2826 9.87882 14.1419 10.0195C14.0013 10.1601 13.9222 10.3509 13.9222 10.5498V17.2998H1.92224V5.29981H8.67224C8.87115 5.29981 9.06192 5.22079 9.20257 5.08013C9.34322 4.93948 9.42224 4.74872 9.42224 4.54981C9.42224 4.35089 9.34322 4.16013 9.20257 4.01947C9.06192 3.87882 8.87115 3.7998 8.67224 3.79981H1.92224C1.52442 3.79981 1.14289 3.95784 0.861581 4.23915C0.580276 4.52045 0.422241 4.90198 0.422241 5.29981V17.2998C0.422241 17.6976 0.580276 18.0792 0.861581 18.3605C1.14289 18.6418 1.52442 18.7998 1.92224 18.7998H13.9222C14.3201 18.7998 14.7016 18.6418 14.9829 18.3605C15.2642 18.0792 15.4222 17.6976 15.4222 17.2998V10.5498C15.4222 10.3509 15.3432 10.1601 15.2026 10.0195C15.0619 9.87882 14.8712 9.7998 14.6722 9.7998Z" fill="#333333"/>
</svg>
