<svg width="18" height="22" viewBox="0 0 18 22" fill="none" xmlns="http://www.w3.org/2000/svg">
<path d="M17.494 13.3691L9.61902 21.2441C9.53776 21.3254 9.44125 21.39 9.33503 21.434C9.22881 21.478 9.11495 21.5007 8.99996 21.5007C8.88497 21.5007 8.77111 21.478 8.66488 21.434C8.55866 21.39 8.46216 21.3254 8.38089 21.2441L0.505894 13.3691C0.383384 13.2467 0.299938 13.0907 0.266119 12.9209C0.232299 12.7511 0.249629 12.575 0.315912 12.4151C0.382195 12.2551 0.494453 12.1184 0.638472 12.0222C0.782492 11.9261 0.951798 11.8749 1.12496 11.875H8.12496V1.375C8.12496 1.14294 8.21714 0.920376 8.38124 0.756282C8.54533 0.592187 8.76789 0.5 8.99996 0.5C9.23202 0.5 9.45458 0.592187 9.61868 0.756282C9.78277 0.920376 9.87496 1.14294 9.87496 1.375V11.875H16.875C17.0481 11.8749 17.2174 11.9261 17.3614 12.0222C17.5055 12.1184 17.6177 12.2551 17.684 12.4151C17.7503 12.575 17.7676 12.7511 17.7338 12.9209C17.7 13.0907 17.6165 13.2467 17.494 13.3691Z" fill="#333333"/>
</svg>
