<svg width="58" height="48" viewBox="0 0 58 48" fill="none" xmlns="http://www.w3.org/2000/svg">
<path opacity="0.1" d="M58 5.48246C52.6746 9.52921 48.8543 13.4025 46.5389 17.1024C44.3393 20.6866 43.2395 24.6756 43.2395 29.0692C44.7445 28.1442 46.481 27.6817 48.4491 27.6817C51.1118 27.6817 53.2535 28.6067 54.8742 30.4566C56.6108 32.1909 57.479 34.4456 57.479 37.2205C57.479 40.3422 56.3792 42.8859 54.1796 44.8515C52.0958 46.817 49.2595 47.7998 45.6707 47.7998C37.4511 47.7998 33.3413 42.3656 33.3413 31.4972C33.3413 28.6067 33.6886 25.9474 34.3832 23.5194C35.0778 20.9757 36.1776 18.5477 37.6826 16.2352C39.3034 13.8072 41.4451 11.3791 44.1078 8.95109C46.7705 6.40743 50.0699 3.69033 54.006 0.799805L58 5.48246ZM24.6587 5.48246C19.3333 9.52921 15.513 13.4025 13.1976 17.1024C10.998 20.6866 9.8982 24.6756 9.8982 29.0692C11.4032 28.1442 13.1397 27.6817 15.1078 27.6817C17.7705 27.6817 19.9122 28.6067 21.5329 30.4566C23.2695 32.1909 24.1377 34.4456 24.1377 37.2205C24.1377 40.3422 23.0379 42.8859 20.8383 44.8515C18.7545 46.817 15.9182 47.7998 12.3293 47.7998C4.10978 47.7998 0 42.3656 0 31.4972C0 28.6067 0.347305 25.9474 1.04192 23.5194C1.73653 20.9757 2.83633 18.5477 4.34132 16.2352C5.96208 13.8072 8.10379 11.3791 10.7665 8.95109C13.4291 6.40743 16.7285 3.69033 20.6647 0.799805L24.6587 5.48246Z" fill="#76727E"/>
</svg>
