<svg width="20" height="20" viewBox="0 0 20 20" fill="none" xmlns="http://www.w3.org/2000/svg">
<path d="M10 0.0498047C8.07164 0.0498047 6.18657 0.621632 4.58319 1.69298C2.97982 2.76432 1.73013 4.28706 0.992179 6.06864C0.254225 7.85022 0.061142 9.81062 0.437348 11.7019C0.813554 13.5933 1.74215 15.3305 3.10571 16.6941C4.46928 18.0577 6.20656 18.9863 8.09787 19.3625C9.98919 19.7387 11.9496 19.5456 13.7312 18.8076C15.5127 18.0697 17.0355 16.82 18.1068 15.2166C19.1782 13.6132 19.75 11.7282 19.75 9.79981C19.7451 7.21547 18.7162 4.73839 16.8888 2.91099C15.0614 1.08358 12.5843 0.0547603 10 0.0498047ZM14.6406 8.09356L9.14688 13.3436C9.00485 13.4772 8.81687 13.551 8.62188 13.5498C8.52657 13.5512 8.43194 13.5336 8.34344 13.4982C8.25494 13.4628 8.17433 13.4103 8.10626 13.3436L5.35938 10.7186C5.28319 10.6521 5.22123 10.5709 5.17722 10.4799C5.13321 10.3888 5.10806 10.2899 5.10328 10.1889C5.0985 10.0879 5.11419 9.98694 5.14941 9.89216C5.18463 9.79739 5.23865 9.71071 5.30822 9.63734C5.3778 9.56397 5.46149 9.50543 5.55426 9.46523C5.64704 9.42504 5.74698 9.40401 5.84809 9.40342C5.94919 9.40284 6.04938 9.4227 6.14261 9.46182C6.23585 9.50093 6.32021 9.5585 6.39063 9.63105L8.62188 11.7592L13.6094 7.00605C13.7552 6.87883 13.9446 6.81289 14.1379 6.82204C14.3312 6.83118 14.5135 6.9147 14.6467 7.05513C14.7798 7.19556 14.8536 7.38203 14.8524 7.57556C14.8513 7.76908 14.7754 7.95468 14.6406 8.09356Z" fill="#E3E3E3"/>
</svg>
